<?xml version="1.0" standalone="no"?>
<!DOCTYPE svg PUBLIC "-//W3C//DTD SVG 1.1//EN" "http://www.w3.org/Graphics/SVG/1.1/DTD/svg11.dtd" >
<svg xmlns="http://www.w3.org/2000/svg" xmlns:xlink="http://www.w3.org/1999/xlink" version="1.1">
<metadata>
Created by FontForge 20190801 at Mon May 20 09:01:48 2019
 By Jimmy Wärting
zamronihamzah
</metadata>
<defs>
<font id="WonderBoys" horiz-adv-x="435" >
  <font-face 
    font-family="Wonder Boys"
    font-weight="600"
    font-stretch="semi-condensed"
    units-per-em="1000"
    panose-1="0 0 0 0 0 0 0 0 0 0"
    ascent="800"
    descent="-200"
    x-height="513"
    cap-height="689"
    bbox="-58.25 -213 704 751"
    underline-thickness="50"
    underline-position="-125"
    unicode-range="U+000D-201D"
  />
<missing-glyph horiz-adv-x="213" 
 />
    <glyph glyph-name=".notdef" horiz-adv-x="213" 
 />
    <glyph glyph-name="uni0000" horiz-adv-x="0" 
 />
    <glyph glyph-name="uni0000" horiz-adv-x="0" 
 />
    <glyph glyph-name="uni000D" unicode="&#xd;" horiz-adv-x="250" 
 />
    <glyph glyph-name="space" unicode=" " horiz-adv-x="208" 
 />
    <glyph glyph-name="A" unicode="A" horiz-adv-x="473" 
d="M153 18q-27 -7 -55 -12.5t-56 -5.5q-11 0 -21 2.5t-12 16.5q-1 62 -4.5 123.5t-4.5 123t1.5 123t12.5 122.5q6 39 22 73t41.5 60t59 41t74.5 15q33 0 63.5 -10.5t56 -29.5t43.5 -46t25 -60q12 -62 16 -126.5t3.5 -130t-3 -130.5t-4.5 -128q-1 -12 -8 -20t-17 -12
t-21.5 -5.5t-21.5 -1.5q-14 0 -28.5 2t-28.5 4q-6 2 -11 6.5t-7 10.5q-2 9 -2.5 21.5t-0.5 26v26.5v22q0 12 -11 12q-18 -1 -35.5 -1.5t-34.5 -0.5q-10 -1 -13 -3t-2 -12q1 -16 1.5 -34t0.5 -35q-1 -8 -5.5 -16.5t-12.5 -10.5zM162 490q-2 -32 -2.5 -59t0 -51.5t1.5 -48
t1 -49.5q0 -14 3.5 -18t17.5 -4q16 0 31.5 0.5t31.5 0.5q14 0 17.5 4t2.5 15q-2 58 -2.5 116t-11.5 115q-2 12 -12.5 24.5t-24.5 12.5h-2q-17 -2 -33 -15t-18 -43z" />
    <glyph glyph-name="B" unicode="B" horiz-adv-x="441" 
d="M34 691q27 2 56.5 3t59.5 1q43 0 83.5 -5t73 -19.5t53.5 -41.5t24 -71t-6 -77.5t-24.5 -56.5t-33.5 -35t-32 -14q26 -3 46 -17.5t34.5 -34.5t22.5 -44.5t9 -48.5q1 -27 -4 -55.5t-15.5 -55t-26 -48t-36.5 -35.5q-19 -13 -47.5 -20t-61.5 -10.5t-67.5 -4.5t-66.5 -1h-37
q-8 0 -18 5t-10 13q-8 164 -9.5 325.5t4.5 324.5q1 9 10.5 15.5t18.5 7.5zM152 266q1 -29 1 -54q1 -21 1 -41v-27q0 -11 11 -11h8q35 3 56.5 24.5t19.5 56.5q-1 22 -6 35.5t-15.5 21t-25.5 10.5t-36 3q-11 0 -12.5 -4t-1.5 -14zM152 547q0 -20 1 -38v-51q0 -10 14 -10
q2 0 4 0.5t4 0.5q29 4 43 23t14 43q0 26 -12.5 38t-53.5 12q-11 0 -12.5 -4t-1.5 -14z" />
    <glyph glyph-name="C" unicode="C" horiz-adv-x="484" 
d="M183 513q-10 -28 -15.5 -71t-5.5 -89t5.5 -88.5t15.5 -71.5q7 -19 19.5 -27.5t26.5 -8.5q20 0 31.5 12t17.5 29.5t8 36.5t2 34q0 16 12.5 20.5t25.5 4.5q12 0 30 -2t34.5 -7t28.5 -13t12 -21q1 -52 -8.5 -98t-32.5 -80t-60.5 -53.5t-93.5 -19.5q-75 0 -128.5 40
t-78.5 110q-15 42 -22 92.5t-7 104t7.5 107.5t22.5 102q21 69 75 104.5t125 35.5q55 0 93 -17.5t62 -49t36 -75t15 -96.5q1 -15 -9.5 -24t-26.5 -14.5t-34 -7t-32 -1.5q-7 0 -15 0.5t-15 3.5t-11.5 8t-4.5 14q0 14 -1.5 34t-7.5 38t-17.5 31t-31.5 13q-14 0 -27 -10t-20 -30
z" />
    <glyph glyph-name="D" unicode="D" horiz-adv-x="475" 
d="M33 691q28 2 58.5 3.5t62.5 1.5q38 0 74 -4.5t66 -16.5q53 -22 84 -79.5t44 -131t8.5 -152.5t-23.5 -143q-18 -60 -49.5 -94t-72.5 -50.5t-89.5 -20.5t-101.5 -4h-57q-8 0 -18 5t-10 13q-8 164 -9 325.5t4 324.5q1 9 10.5 15.5t18.5 7.5zM153 512v-37.5v-61t0.5 -73
t0.5 -73v-61v-37.5q0 -7 8 -8.5t17 -1.5q31 1 51.5 22t32 54t14.5 72.5t-1.5 78t-15 70.5t-27.5 48q-13 13 -33 17t-37 5q-10 0 -10 -14z" />
    <glyph glyph-name="E" unicode="E" horiz-adv-x="393" 
d="M36 683q31 5 67 7.5t76 2.5q60 0 121 -6q12 -2 21.5 -13t11.5 -23q5 -29 5 -56t-8 -55q-2 -9 -14 -13t-21 -6q-10 -2 -20 -2h-20h-11q-13 0 -25.5 -0.5t-25.5 -2.5q-6 -1 -11.5 -5.5t-6.5 -10.5q-4 -22 -4.5 -39t2.5 -39q2 -13 15 -15q9 -2 18.5 -2h18.5h10q12 0 24 -0.5
t23 -2.5q8 -2 15.5 -8.5t9.5 -14.5q5 -26 6.5 -47t-2.5 -47q-2 -8 -8.5 -13.5t-14.5 -7.5q-24 -5 -49.5 -5t-49.5 -3q-5 -1 -10 -5.5t-6 -10.5q-2 -21 -2 -37.5t4 -37.5q1 -5 4.5 -9t8.5 -4h10q25 0 49.5 1.5t49.5 1.5h18q8 -1 16 -6.5t10 -13.5q5 -21 5.5 -46.5t-4.5 -46.5
q-2 -10 -9 -19.5t-18 -11.5q-43 -5 -85.5 -8t-85.5 -3q-25 0 -49 1t-49 3q-11 0 -20.5 8.5t-10.5 18.5q-10 154 -14 306.5t4 305.5q1 16 8.5 27t22.5 13z" />
    <glyph glyph-name="F" unicode="F" horiz-adv-x="364" 
d="M36 683q31 5 67 7.5t76 2.5q61 0 121 -6q12 -2 21.5 -13t11.5 -23q5 -29 5.5 -56t-7.5 -55q-3 -9 -14.5 -13t-20.5 -6q-11 -2 -20.5 -2h-20.5h-10q-13 0 -25.5 -0.5t-25.5 -2.5q-6 -1 -11.5 -5.5t-7.5 -10.5q-4 -22 -4.5 -39t2.5 -39q2 -13 16 -15q9 -2 18 -2h19h10
q11 0 23 -0.5t23 -2.5q8 -2 16 -8t9 -15q2 -22 -3 -48t-10 -49q-2 -8 -8.5 -13.5t-14.5 -7.5q-24 -4 -41 -3t-41 -2q-5 -1 -10.5 -5.5t-5.5 -10.5q1 -34 2 -57t1.5 -44t1.5 -43t1 -54q0 -11 -5 -23.5t-16 -14.5q-19 -2 -35 -3t-30 -1t-27 0.5t-27 1.5q-11 1 -17 10t-6 19
q-11 154 -15 306.5t4 305.5q1 16 8.5 27t22.5 13z" />
    <glyph glyph-name="G" unicode="G" horiz-adv-x="503" 
d="M191 511q-10 -28 -15.5 -71.5t-5.5 -89t5.5 -88.5t15.5 -72q7 -19 19.5 -27.5t26.5 -8.5q20 0 32 15t18.5 35.5t8.5 42.5t2 35q0 9 -9 9q-1 0 -1.5 -0.5t-1.5 -0.5q-5 -1 -13 -1.5t-11 -1.5t-11 -1t-14.5 3t-9.5 14q-5 15 -8.5 41.5t-1.5 48.5q2 14 10.5 20.5t21.5 8.5
q11 1 26.5 2t33.5 2.5t36.5 2.5t34.5 1q6 0 16 -0.5t19.5 -2.5t17 -6.5t8.5 -12.5q14 -79 10 -152.5t-28 -130.5t-70.5 -91t-118.5 -34q-75 0 -127.5 40.5t-77.5 109.5q-15 42 -22 92.5t-7 104t7.5 107.5t22.5 102q21 69 74.5 104.5t124.5 35.5q42 0 74 -10.5t55.5 -29.5
t38.5 -43.5t22 -53.5q2 -5 1.5 -12t-8.5 -12q-29 -14 -57.5 -22t-60.5 -8q-5 0 -9.5 2.5t-7.5 5.5q-4 5 -6 10.5t-5 10.5q-14 19 -31 19q-13 0 -24.5 -10.5t-19.5 -31.5z" />
    <glyph glyph-name="H" unicode="H" horiz-adv-x="507" 
d="M6 31q-1 70 -3 142t-2.5 149t0.5 160.5t5 175.5q1 11 7 19.5t17 9.5q14 1 27 1.5t27 0.5t30 -1t35 -3q10 -2 15.5 -14.5t4.5 -23.5v-58.5v-54t-0.5 -54.5t-1.5 -62q0 -5 5.5 -9.5t10.5 -5.5q4 -1 8 -1h8q5 0 17 0.5t25 3t22.5 7t9.5 11.5q-1 34 -0.5 61.5t1.5 53.5
t1.5 52.5t0.5 57.5q0 11 5.5 23.5t15.5 14.5q30 4 53 8.5t47 4.5h9.5t9.5 -1q11 -1 17 -9.5t7 -19.5q9 -349 0 -639q-1 -11 -7 -19.5t-17 -9.5q-14 -1 -27 -1.5t-27 -0.5t-30 1t-35 3q-10 1 -15.5 14t-5.5 23q0 32 -1 52.5t-2 39t-2 40t0 55.5q1 5 -5 9.5t-11 5.5t-9 1h-8
q-14 0 -27.5 -2t-27.5 -4q-5 -1 -10.5 -5.5t-5.5 -10.5q1 -34 1.5 -54.5t0.5 -38v-37v-51.5q1 -10 -4.5 -23t-15.5 -14q-19 -2 -35 -3t-30 -1t-27 0.5t-27 1.5q-11 1 -17.5 9.5t-6.5 19.5z" />
    <glyph glyph-name="I" unicode="I" horiz-adv-x="216" 
d="M6 31q-1 70 -3 142t-3 149t0.5 160.5t5.5 175.5q1 11 7 19.5t16 9.5q14 1 27 1.5t27 0.5t30 -1t35 -3q11 -1 16.5 -14t4.5 -23q-10 -309 0 -606q1 -11 -4.5 -23.5t-16.5 -14.5q-19 -2 -35 -3t-30 -1t-27 0.5t-27 1.5q-10 1 -16.5 10t-6.5 19z" />
    <glyph glyph-name="J" unicode="J" horiz-adv-x="439" 
d="M228 659q0 10 5.5 23t15.5 14q19 2 35 3t30 1t27 -0.5t27 -1.5q11 -1 17 -9.5t7 -19.5q1 -29 3 -73.5t4 -95.5t2.5 -105t-1 -104t-6 -91.5t-12.5 -67.5q-22 -69 -71.5 -100.5t-119.5 -31.5q-42 0 -74 10.5t-55 29.5t-38 44t-23 53q-2 5 -0.5 15t9.5 15q24 18 48.5 27.5
t54.5 9.5q10 0 18 -8q4 -5 12 -17.5t12 -17.5q14 -18 31 -18q28 0 43 42q4 9 5 43.5t1.5 81.5t-0.5 101t-2.5 104t-2.5 89t-2 55z" />
    <glyph glyph-name="K" unicode="K" horiz-adv-x="488" 
d="M6 31q-1 70 -3 142t-2.5 149t0.5 160.5t5 175.5q1 11 7 19.5t17 9.5q14 1 27 1.5t26 0.5q15 0 31 -1t35 -3q10 -1 15.5 -14t4.5 -23q-1 -20 -1.5 -49.5t-1.5 -60.5t-1.5 -60t-0.5 -49q10 29 22 54t24 51.5t24 56t21 65.5q5 19 11 25.5t20 6.5h7.5t8.5 -1q21 -2 39.5 -8
t38.5 -12q26 -7 35 -14t2 -30q-3 -10 -13 -39t-27.5 -69t-42 -86.5t-54.5 -92.5q27 -22 53.5 -54.5t50 -68.5t42.5 -73t30 -68q6 -16 5 -26.5t-7 -17t-15.5 -9.5t-20.5 -6q-20 -5 -34.5 -7t-34.5 -4q-5 0 -9 -0.5t-7 -0.5q-12 0 -18 5t-16 21q-8 14 -19.5 33t-24 40
t-25.5 42.5t-24 39.5q-5 8 -7 8q-3 0 -8 -8q-6 -11 -9.5 -15.5t-13.5 -16.5v-24v-29t0.5 -29.5t0.5 -25.5q1 -11 -4.5 -23.5t-15.5 -14.5q-19 -2 -35 -3t-31 -1q-13 0 -26 0.5t-27 1.5q-11 1 -17.5 10t-6.5 19z" />
    <glyph glyph-name="L" unicode="L" horiz-adv-x="408" 
d="M6 32q-1 70 -3 142t-3 149t0.5 160.5t5.5 175.5q0 11 6.5 19.5t16.5 9.5q14 1 27 1.5t27 0.5t30 -1t35 -3q11 -1 16 -14t5 -23q-5 -124 -5.5 -243.5t1.5 -239.5q17 -1 23.5 -1.5t11.5 -0.5q4 0 9.5 0.5t17.5 1t34 2t59 2.5q11 0 23.5 -5.5t14.5 -15.5q5 -36 4.5 -62
t-2.5 -57q-1 -11 -10 -17t-19 -7q-43 -1 -63.5 -2t-30.5 -2t-14 -1.5t-13 -0.5q-8 0 -25 0.5t-50 2.5q-28 -3 -51 -3q-25 0 -55 3q-10 1 -16.5 10t-6.5 19z" />
    <glyph glyph-name="M" unicode="M" horiz-adv-x="734" 
d="M180 504q-5 -14 -8.5 -47t-5.5 -77t-2 -93.5t1 -95.5t3.5 -84t6.5 -59q2 -12 -1.5 -19.5t-17.5 -9.5q-28 -5 -55.5 -8.5t-56.5 -5.5q-10 0 -17.5 4.5t-9.5 15.5q-6 31 -10 74t-5.5 90.5t-1 97t2.5 95t6 83t10 61.5q9 39 27 71.5t43 56t54.5 36t60.5 12.5q32 0 65.5 -15
t63.5 -48q29 32 60.5 47t62.5 15q33 0 63.5 -14t56 -37.5t45.5 -55.5t30 -68q8 -27 13 -66.5t7 -85t2 -93.5t-2.5 -94t-7 -86t-11.5 -68q-5 -23 -14.5 -28t-31.5 -5q-26 1 -50 2.5t-53 12.5q-15 5 -14 18t3 23q4 19 6.5 50.5t3.5 69t1.5 78.5t0 78.5t-1.5 69t-3 50.5
q0 6 -2 18t-6 24t-10 20.5t-14 8.5q-14 0 -33 -31q-9 -16 -15 -46t-9 -67t-4 -79t-0.5 -82.5t1.5 -77t1 -62.5q0 -21 -12 -26t-34 -5h-26q-12 0 -25 1t-23.5 3.5t-18 7.5t-8.5 15q-4 32 -6.5 83t-3.5 105t-2 103t-4 78q-1 7 -4.5 20.5t-9 27t-13.5 24t-17 10.5
q-13 0 -21 -21z" />
    <glyph glyph-name="N" unicode="N" horiz-adv-x="520" 
d="M152 33q0 -10 -6.5 -19t-17.5 -10q-14 -1 -25.5 -1.5t-22.5 -0.5q-13 0 -26.5 1t-32.5 3q-11 2 -16 14.5t-5 23.5q11 297 0 606q0 10 5 23t16 14q19 2 31 3t22 1t20 -0.5t24 -1.5q12 -1 23.5 -15.5t22.5 -37t20 -48.5t16 -50.5t12 -43.5t6 -26q2 -7 6.5 -26.5t11.5 -44.5
t15.5 -52t17.5 -49.5t17.5 -37t15.5 -14.5q4 0 5.5 8t2.5 22q1 30 0 61q-1 30 -0.5 63.5t1.5 67.5q1 57 2.5 107.5t3.5 82.5q1 11 7 19.5t17 10.5q14 2 25 3.5t22.5 3t24.5 2.5t30 2q16 0 23.5 -10t7.5 -25q-3 -77 -5 -149.5t-3.5 -144t-1 -142.5t3.5 -145q1 -23 -4.5 -36.5
t-18.5 -25.5q-11 -11 -28 -15t-36 -4q-25 0 -53 5q-24 4 -47 25.5t-43.5 50.5t-37 60t-27.5 53q-2 5 -6 5q-5 0 -5 -10q-1 -22 -2.5 -38.5t-3 -33.5t-3 -36.5t-1.5 -47.5z" />
    <glyph glyph-name="O" unicode="O" horiz-adv-x="513" 
d="M419 575q13 -29 22 -70t14 -88t4.5 -97t-6.5 -96t-19 -85.5t-34 -66.5q-26 -34 -69 -53t-92 -19q-28 0 -56.5 7t-54 22.5t-47.5 39.5t-37 57q-19 41 -30.5 100t-13 122.5t10 126.5t38 113t71 81t109.5 30q79 -1 122 -34t68 -90zM281 177q14 21 19 64.5t3.5 92t-8 93
t-15.5 68.5q-10 26 -21.5 36.5t-22.5 10.5q-12 0 -23 -8.5t-20 -22t-14.5 -30t-7.5 -33.5q-5 -63 -6 -127.5t21 -125.5q8 -20 22.5 -28.5t31.5 -8.5q28 0 41 19z" />
    <glyph glyph-name="P" unicode="P" horiz-adv-x="441" 
d="M324 666q29 -18 45 -40.5t22.5 -48t7.5 -53t0 -54.5q-2 -50 -25 -92t-58.5 -73t-78 -50t-83.5 -23q-2 -27 -1.5 -52.5t1 -50.5l1 -50t-1.5 -52q-1 -8 -8 -14.5t-15 -8.5q-14 -2 -27 -3t-26 -1q-11 0 -22 0.5t-22 0.5q-9 1 -18.5 7.5t-10.5 15.5q-5 163 -4 328.5t9 328.5
q0 8 10 13.5t18 5.5q26 0 55 1.5t59 1.5q45 0 89.5 -7t83.5 -30zM228 428q13 10 17.5 30t2.5 38q-1 16 -4.5 29t-12 22t-24.5 14.5t-43 5.5q-11 0 -11 -12q-1 -32 -1 -70t-1 -70q0 -14 11 -14q17 2 34.5 8.5t31.5 18.5z" />
    <glyph glyph-name="Q" unicode="Q" horiz-adv-x="540" 
d="M440 581q13 -36 19.5 -89t5 -111.5t-11 -117t-27.5 -106.5q14 -18 26 -32t19 -20t10 -17.5t-3 -18.5q-4 -4 -16 -15.5t-25 -23.5t-25.5 -21t-18.5 -9t-12 3t-11 6t-13.5 12t-19.5 22q-23 -13 -47.5 -19t-50.5 -6q-31 0 -61.5 8.5t-57 26t-47.5 43t-33 58.5
q-14 41 -25.5 98.5t-14 120t6.5 124.5t33.5 110.5t68.5 79t111 30.5q39 0 72.5 -7t61.5 -23t50 -42t36 -64zM296 269q6 30 9 65t3 68t-3 61.5t-8 45.5q-9 31 -24 44t-31 13q-24 0 -45 -22.5t-26 -53.5q-9 -63 -6.5 -137.5t21.5 -137.5q5 -18 16.5 -29t24.5 -11q5 0 8 1
q17 6 27.5 17t17.5 23.5t10.5 26.5t5.5 26z" />
    <glyph glyph-name="R" unicode="R" horiz-adv-x="450" 
d="M419 63q4 -14 -6.5 -22.5t-30.5 -16.5q-16 -6 -36 -11.5t-38 -5.5q-7 0 -17 2q-11 2 -16 3.5t-7.5 5t-5 9.5t-7.5 17q-6 12 -14.5 35t-21 47.5t-29 45.5t-38.5 30q1 -43 2 -81t3 -81q0 -11 -5.5 -23.5t-15.5 -14.5q-19 -2 -35 -3t-30 -1t-27 0.5t-27 1.5q-11 1 -17 10
t-7 20q-1 49 -2 98.5t-2 101.5q-2 227 9 449q1 8 10.5 13.5t18.5 5.5q26 0 55 1.5t58 1.5q45 0 89.5 -7t83.5 -30q29 -18 45 -40.5t23 -48t7.5 -53t-0.5 -54.5q-1 -28 -9.5 -56.5t-22.5 -54t-34 -45t-44 -28.5q30 -14 52.5 -39t39.5 -55t29 -63.5t20 -63.5zM217 426
q13 10 17.5 30t3.5 38q-1 16 -4.5 29t-12.5 22t-25 14.5t-43 5.5q-11 0 -11 -12q0 -32 -0.5 -70t-1.5 -70q0 -14 11 -14q17 2 34.5 8.5t31.5 18.5z" />
    <glyph glyph-name="S" unicode="S" 
d="M255 472q-2 6 -3.5 16t-4 21.5t-6 22t-9.5 16.5q-16 18 -33 18q-10 0 -18.5 -5.5t-13.5 -14.5t-6.5 -20t2.5 -23q9 -25 34.5 -51t55 -52t57 -51t40.5 -48q16 -28 23.5 -65t4 -74.5t-18 -71t-41.5 -54.5q-24 -19 -54.5 -27.5t-62.5 -8.5q-50 0 -85.5 13t-59.5 38.5
t-37.5 62t-18.5 84.5q-2 8 3 16t12 12q21 12 50 20.5t52 12.5q6 0 12 -2.5t9 -8.5t4 -16.5t3 -22.5t5.5 -24.5t11.5 -22.5q6 -8 13.5 -11.5t15.5 -3.5q9 0 17.5 5.5t12.5 15t3 22.5t-11 29q-9 15 -27 32t-39.5 37t-45 42t-43 46.5t-33.5 51t-17 55.5q-5 47 6.5 93t45.5 79
q35 35 71.5 46t86.5 12q48 0 80.5 -18.5t51.5 -49.5t27.5 -70.5t8.5 -80.5q0 -12 -14.5 -19.5t-34 -11.5t-38.5 -5t-28 -1q-7 0 -10.5 4.5t-5.5 10.5z" />
    <glyph glyph-name="T" unicode="T" horiz-adv-x="471" 
d="M391 693q11 -1 20 -7t10 -17q2 -31 2.5 -57t-4.5 -62q-2 -11 -14.5 -16t-23.5 -5q-35 2 -52.5 2.5t-24 1.5t-5.5 1h4h3.5t0.5 0t-5.5 -0.5t-14.5 -1.5q-2 -119 -1.5 -243t5.5 -247q0 -11 -5 -23.5t-16 -14.5q-19 -2 -35 -3t-30 -1t-27 0.5t-27 1.5q-11 1 -17 10t-7 20
q-6 142 -5.5 266.5t2.5 235.5h-3q3 -1 -4 -1q-6 -1 -22.5 -1.5t-52.5 -2.5h-2q-11 0 -22.5 5.5t-13.5 15.5q-5 36 -4.5 62t2.5 57q1 10 10 16t20 7q63 4 104 5.5t78 1.5q35 0 75.5 -1.5t101.5 -4.5z" />
    <glyph glyph-name="U" unicode="U" horiz-adv-x="511" 
d="M227 0q-43 0 -76.5 13.5t-58.5 37.5t-42.5 57t-28.5 71q-7 27 -12 65t-7 82t-2 91.5t2.5 92.5t7 84t10.5 67q5 20 13.5 26t31.5 6q26 -1 49 -3t51 -12q15 -5 14 -17.5t-3 -22.5q-3 -19 -5.5 -49.5t-4 -67.5t-1.5 -77v-76.5t1.5 -67.5t2.5 -49q2 -17 7.5 -34t14.5 -30.5
t20 -22t23 -8.5t23.5 10.5t20.5 36.5q5 14 8.5 46.5t5 75.5t1.5 91t-1 93t-3 82t-6 57q-5 25 18 29q28 5 55 8t55 5q11 0 17.5 -4t8.5 -15q6 -30 10 -71.5t5.5 -88t1 -95.5t-2.5 -93t-5.5 -81t-9.5 -60q-10 -42 -26.5 -75.5t-41.5 -57.5t-59.5 -36.5t-81.5 -12.5z" />
    <glyph glyph-name="V" unicode="V" horiz-adv-x="529" 
d="M20 685q19 8 35.5 13t35.5 5q13 0 26 -3q10 -2 18 -9.5t10 -15.5q11 -39 22.5 -89t23.5 -102.5t22.5 -103t18.5 -89.5q2 -11 8 -11q7 0 10 14q9 39 19 89.5t21 102.5t23.5 101.5t25.5 87.5q4 11 15 21.5t24 9.5q23 -3 41 -7.5t41 -10.5q15 -4 23.5 -14t6.5 -20
q-17 -81 -36.5 -157.5t-41 -152t-45 -151t-49.5 -154.5q-4 -14 -16.5 -22t-28.5 -11.5t-32 -4.5t-28 -1q-13 0 -26 0.5t-24.5 4.5t-20 12.5t-11.5 23.5q-19 79 -37 155t-34.5 151.5t-31.5 152t-28 157.5q-2 8 5 16t15 12z" />
    <glyph glyph-name="W" unicode="W" horiz-adv-x="732" 
d="M493 198q5 14 8.5 47.5t5 77.5t1.5 93.5t-1 95.5t-3.5 84t-6.5 58q-5 25 20 29q28 5 55.5 8.5t56.5 5.5q23 0 27 -20q6 -31 10 -73.5t5.5 -90t1 -97.5t-2.5 -95t-6 -83t-10 -62q-9 -39 -27.5 -71.5t-43 -56t-54 -36t-60.5 -12.5q-32 0 -65.5 15t-63.5 48
q-29 -32 -60.5 -47t-63.5 -15t-62.5 14t-56.5 38t-45.5 56t-29.5 68q-8 27 -13 66t-7 84.5t-2 94t2.5 94t7 86t10.5 68.5q5 20 14 26.5t33 6.5q26 -1 49.5 -3t52.5 -13q15 -5 14.5 -17.5t-2.5 -22.5q-4 -19 -6.5 -50.5t-3.5 -69.5t-1.5 -78.5t0 -78.5t1.5 -69.5t3 -50.5
q1 -10 2.5 -19.5t4.5 -17.5q10 -34 25 -34q14 0 33 32q9 16 14.5 45.5t8.5 67t4 79t1 82t-1 77t-1 62.5q0 20 11.5 26t31.5 6q6 0 13 -0.5t15 -0.5q13 0 26 -1t23.5 -3.5t18 -7.5t8.5 -15q5 -32 7 -83t3 -105t2 -103t4 -78q1 -7 4 -21t8.5 -27t13.5 -23t18 -10q13 0 21 20z
" />
    <glyph glyph-name="X" unicode="X" horiz-adv-x="541" 
d="M192 33q-8 -17 -16.5 -25t-28.5 -8q-30 0 -57.5 5.5t-54.5 22.5q-8 5 -9.5 17.5t4.5 23.5q32 65 64.5 129t62.5 133q4 8 2 17.5t-4 12.5q-19 34 -36.5 63.5t-35.5 59.5t-37 63.5t-41 75.5q-5 10 -4.5 22.5t11.5 18.5q23 14 45.5 20t51.5 6q19 0 33.5 -3t25.5 -23
q22 -42 40.5 -81t41.5 -81q5 -10 11 -10q5 0 11 11q22 41 36 80t34 81q5 10 14.5 17.5t20.5 8.5q32 0 62.5 -5t58.5 -23q11 -8 9.5 -20t-6.5 -23q-21 -42 -39 -76t-35 -64.5t-34.5 -60.5t-37.5 -63q-5 -10 -5.5 -17.5t8.5 -24.5q33 -59 65 -120.5t67 -120.5q6 -10 4.5 -22.5
t-9.5 -17.5q-25 -16 -58.5 -22.5t-66.5 -6.5q-11 0 -20 11t-15 21q-17 29 -27 53t-27 54q-7 12 -12 12q-4 0 -12 -12q-17 -30 -27.5 -55t-27.5 -54z" />
    <glyph glyph-name="Y" unicode="Y" horiz-adv-x="552" 
d="M170 265q-37 18 -65 59t-48.5 92t-34 107.5t-21.5 106.5q-2 11 0.5 21t12.5 17q23 14 49.5 22.5t53.5 8.5q17 0 28.5 -4.5t13.5 -24.5q1 -11 4 -34t8.5 -51.5t12.5 -58t16.5 -54t21.5 -40t26 -15.5q13 0 24.5 15.5t21.5 40t18 54.5t13.5 58t9 51.5t4.5 34.5t11.5 20.5
t21.5 9.5q39 -1 61.5 -6t48.5 -17q14 -6 13.5 -19t-2.5 -24q-22 -148 -57.5 -240t-96.5 -123q-4 -2 -5.5 -18t-2.5 -40t-0.5 -52.5t1 -54.5t1 -47t0.5 -29q-1 -10 -7 -19t-17 -10q-14 -1 -27 -1.5t-27 -0.5t-30 1t-35 3q-11 2 -16 14.5t-5 23.5q3 61 5 109q0 21 0.5 41
t0 35.5t-1.5 26t-3 11.5z" />
    <glyph glyph-name="Z" unicode="Z" horiz-adv-x="485" 
d="M59 537q-23 0 -29 24q-8 29 -14 56t-1 63q2 10 14.5 15.5t23.5 5.5q58 -2 89.5 -3t52.5 -1q17 0 31.5 0.5t35 1.5t50.5 2.5t77 2.5q10 0 23 -5t15 -16q5 -36 4.5 -62t-2.5 -57q0 -6 -13.5 -31t-34 -60t-46.5 -76.5t-51 -81t-47 -73t-35 -52.5q-8 -11 -3 -16t16 -5
q17 1 31 2t27 1.5t27 1t32 0.5h25t30 -1q11 -1 19.5 -7t9.5 -17q3 -31 3.5 -61.5t-4.5 -66.5q-2 -11 -15 -16t-23 -5q-39 2 -65.5 2.5t-46 1.5t-33 1h-26.5h-25.5t-32 -1t-44 -1.5t-63.5 -2.5q-10 0 -23 5t-14 16q-2 18 -3 40.5t-1 45t0.5 43.5t1.5 36q1 9 9 23.5t13 22.5
q19 28 43.5 62t50 71t51 75t47.5 73q13 20 -12 22q-25 0 -40.5 0.5t-29.5 0.5h-30.5t-44.5 1z" />
    <glyph glyph-name="p" unicode="p" horiz-adv-x="427" 
d="M6 484q0 10 6.5 19t16.5 10q31 2 66.5 6.5t76.5 4.5h13q51 0 85 -17t54.5 -47t30 -71t13.5 -89q4 -51 1 -99.5t-17.5 -87.5t-42.5 -65.5t-75 -32.5q-8 -1 -16 -1.5t-16 -0.5q-13 0 -25 1.5t-24 3.5q1 -45 1.5 -89t2.5 -87q1 -10 -4.5 -23t-16.5 -14q-19 -2 -32.5 -3
t-26.5 -1q-11 0 -22.5 0.5t-25.5 1.5q-10 1 -16 9.5t-7 19.5q-9 186 -6 349t6 303zM152 214q0 -7 1.5 -16t4.5 -18t8 -16t13 -9q3 -1 10 -1q27 0 36 46q14 71 -6 141q-6 21 -16 33t-21 12q-20 0 -29 -35q0 -34 -0.5 -68t-0.5 -69z" />
    <glyph glyph-name="q" unicode="q" horiz-adv-x="458" 
d="M2 300q4 48 13.5 89t30 71t54.5 47t85 17h13q41 0 76.5 -4.5t66.5 -6.5q10 -1 16.5 -10t6.5 -19q3 -140 6 -303t-6 -349q-1 -11 -7 -19.5t-16 -9.5q-14 -1 -25.5 -1.5t-22.5 -0.5q-13 0 -26.5 1t-32.5 3q-11 1 -16.5 14t-4.5 23q2 43 2.5 87t1.5 89q-12 -2 -24 -3.5
t-25 -1.5q-8 0 -16 0.5t-16 1.5q-47 6 -75 32.5t-42.5 65.5t-17.5 87.5t1 99.5zM145 200q9 -46 36 -46q7 0 10 1q8 2 13 9t8 16t4.5 18t1.5 16q0 35 -0.5 69t-0.5 68q-9 35 -29 35q-11 0 -21 -12t-16 -33q-20 -70 -6 -141z" />
    <glyph glyph-name="s" unicode="s" horiz-adv-x="395" 
d="M260 364q-1 0 -1.5 -0.5t-2.5 -0.5q-5 0 -10.5 2.5t-7.5 6.5q-11 17 -20 29t-27 12q-7 0 -11 -1q-14 -3 -21 -11t-7 -18t7 -20.5t20 -18.5q17 -9 38.5 -16.5t43 -17t41.5 -23t33 -35t18 -52.5t-3 -76q-6 -34 -24 -57.5t-43 -38.5t-55.5 -21.5t-61.5 -6.5q-28 1 -52 7.5
t-43.5 16.5t-35.5 21.5t-28 22.5q-7 7 -7 15.5t2 12.5q2 7 7.5 17t12.5 20.5t15 20t15 15.5q4 4 11 4q8 0 12 -4q23 -17 47.5 -27.5t48.5 -12.5h7q24 0 35 10.5t11 24.5t-9 27.5t-26 18.5q-28 8 -59.5 20t-58 31.5t-43 50t-13.5 75.5q2 35 15.5 61.5t36 44.5t52 27t62.5 9
q29 0 54 -9.5t45 -24t35 -32.5t23 -36q2 -5 1.5 -8t-2.5 -8q-6 -13 -30.5 -25.5t-46.5 -21.5z" />
    <glyph glyph-name="c" unicode="c" horiz-adv-x="419" 
d="M156 333q-10 -35 -13.5 -71t7.5 -70q8 -24 22.5 -34t30.5 -10q4 0 7 0.5t7 1.5q14 4 21 18t9 27q2 8 6.5 16.5t17.5 9.5q25 0 45.5 -5.5t42.5 -16.5q5 -3 10.5 -9.5t4.5 -12.5q-18 -85 -57.5 -131t-111.5 -46q-8 0 -15.5 0.5t-15.5 1.5q-47 6 -81 33t-56 67t-31 89.5
t-5 100.5q3 48 18 89t39.5 71t59.5 47t78 17q65 0 102.5 -23t64.5 -82q5 -10 2.5 -20t-13.5 -15q-12 -6 -22 -10.5t-19 -9t-19 -9t-23 -10.5q-4 -2 -7 -2q-6 0 -11 3.5t-9 8.5q-16 25 -43 25q-14 0 -26 -9t-17 -30z" />
    <glyph glyph-name="b" unicode="b" horiz-adv-x="425" 
d="M6 692q1 11 7 19.5t16 9.5q14 1 25.5 1.5t22.5 0.5q13 0 26.5 -1t32.5 -3q11 -1 16.5 -14t4.5 -23q-2 -43 -2.5 -87t-1.5 -89q12 2 24 3.5t25 1.5q8 0 16 -0.5t16 -1.5q47 -6 75 -32.5t42.5 -65.5t17.5 -87.5t-1 -99.5q-4 -48 -13.5 -89t-30 -71t-54.5 -47t-85 -17h-13
q-41 0 -76.5 4.5t-66.5 6.5q-10 1 -16.5 10t-6.5 19q-3 140 -6 303t6 349zM152 310q0 -35 0.5 -69t0.5 -68q9 -35 29 -35q11 0 21 12t16 33q20 70 6 141q-9 46 -36 46q-7 0 -10 -1q-8 -2 -13 -9t-8 -16t-4.5 -18t-1.5 -16z" />
    <glyph glyph-name="r" unicode="r" horiz-adv-x="350" 
d="M40 517q5 2 12 2h15h24q18 0 35 -8t17 -20q1 -7 2 -7h1l2 2q12 12 27 20t30.5 13.5t31 8t27.5 2.5q10 0 14 -1q17 -2 21.5 -12.5t4.5 -15.5q0 -8 -3.5 -27t-8 -38.5t-9.5 -35.5t-7 -19q-7 -8 -14 -8q-2 0 -3 0.5t-2 0.5q-21 3 -38 3q-10 0 -23 -1.5t-25 -6t-20.5 -12.5
t-8.5 -22q0 -31 1.5 -72.5t2 -84.5t0.5 -83.5t-3 -69.5q-1 -8 -7 -14t-14 -8q-22 -3 -47 -3q-12 0 -23 0.5t-22 0.5q-8 1 -17.5 7t-9.5 14q-2 54 -2.5 92t-0.5 68.5t0.5 57t1.5 56.5t1.5 68.5t0.5 91.5q0 32 11 44.5t25 16.5z" />
    <glyph glyph-name="t" unicode="t" horiz-adv-x="356" 
d="M201 676q2 -24 3 -41t2.5 -33.5t2 -35t0.5 -45.5q9 -1 22.5 -1.5t27.5 -2.5q9 0 19.5 -4.5t12.5 -12.5q2 -15 2.5 -26t0.5 -20t-1 -18.5t-2 -22.5q-2 -9 -9.5 -14t-15.5 -5q-15 -2 -31 -2t-27 -1q0 -35 -0.5 -59.5t-1.5 -59.5q0 -24 -0.5 -46t3 -40t12.5 -31t28 -18
q12 -3 18 -3q11 0 14.5 4t7.5 3q7 -2 8 -5q5 -7 9 -20t6 -28t2 -29.5t-3 -23.5q-2 -6 -4.5 -8.5t-5.5 -4.5q-9 -5 -25.5 -13t-46.5 -8q-6 0 -13 0.5t-15 1.5q-41 6 -71 21t-48.5 45.5t-25 79t-1.5 119.5q1 20 2 35.5t2 29.5t1.5 28t0.5 31q-9 1 -14 1t-16 1q-8 0 -15.5 6
t-8.5 14q-1 13 -2 23t-2 20.5t-0.5 22t2.5 26.5q2 8 12.5 12.5t18.5 4.5q10 -1 16 -1.5t14 -0.5q2 21 2 34v26t-0.5 29.5t-0.5 45.5q0 10 4 17.5t13 9.5q17 3 29 5t22 3.5t20.5 2.5t25.5 3q18 1 20 -21z" />
    <glyph glyph-name="u" unicode="u" horiz-adv-x="407" 
d="M2 483q0 15 9 22.5t20 7.5h82q17 0 24 -5t7 -27q1 -26 0 -64.5t-2 -78.5t0.5 -77.5t7.5 -62.5q5 -20 11.5 -27.5t13.5 -7.5q8 0 15.5 8t10.5 19q5 13 8 43.5t5 71t2 86.5t-1 89q0 33 31 33h78q17 0 24 -10t7 -25q1 -45 0.5 -90.5t-2.5 -87t-5.5 -76t-7.5 -56.5
q-8 -42 -17.5 -73.5t-27.5 -52.5t-47 -31.5t-77 -10.5q-45 0 -76 13.5t-51 41t-29.5 69t-12.5 98.5q-2 41 -2 74.5t1 63.5t1.5 60t-0.5 63z" />
    <glyph glyph-name="y" unicode="y" horiz-adv-x="418" 
d="M205 242q5 13 8 37.5t4.5 57t2 72.5t-0.5 83q-1 16 6.5 22.5t21.5 10.5q6 2 16 2h22q17 0 33 -0.5t24 -1.5q10 -2 14.5 -14.5t4.5 -20.5q3 -55 3.5 -118.5t0 -123t-1.5 -109t-1 -75.5q0 -61 -12.5 -104t-35.5 -70t-55.5 -39t-73.5 -12q-38 0 -81 9t-92 26q-12 5 -11.5 15
t2.5 17q8 25 17.5 46.5t23.5 43.5q3 3 8 3t11 -2q63 -19 99 -19q40 0 51.5 20.5t7.5 58.5q-1 8 -5 8q-1 0 -5 -2q-11 -7 -20 -8.5t-20 -1.5h-7q-45 0 -73.5 13.5t-46 41t-25 69t-10.5 98.5q-2 41 -2 68t0.5 50.5t1 47.5t0.5 57q-1 15 8.5 22.5t20.5 7.5q20 0 41 -5t41 -10
q8 -2 14 -3t9.5 -4t5.5 -8.5t2 -16.5q1 -26 -0.5 -56t-2 -61t1 -60t7.5 -54q5 -19 11.5 -26.5t12.5 -7.5q8 0 14.5 8t9.5 18z" />
    <glyph glyph-name="o" unicode="o" horiz-adv-x="422" 
d="M332 440q23 -35 32.5 -81.5t9.5 -94.5t-8 -92t-19 -74q-19 -50 -61.5 -74t-90.5 -24q-37 0 -71.5 14t-60.5 43q-30 33 -45.5 80t-17.5 98t9 101t35 89q30 51 68.5 72.5t77.5 21.5q43 0 80.5 -22t61.5 -57zM233 179q5 13 8 34t4 45.5t-1.5 49t-8.5 44.5q-3 12 -14.5 20
t-24.5 8q-11 0 -20 -6.5t-14 -22.5q-4 -12 -7.5 -31t-5 -40t-2 -42t1.5 -37q3 -27 16 -43t29 -16q11 0 21.5 8.5t17.5 28.5z" />
    <glyph glyph-name="x" unicode="x" horiz-adv-x="464" 
d="M1 485q-2 8 0.5 15.5t12.5 10.5q14 5 24 8t20.5 5.5t23 5t30.5 5.5q11 0 18.5 -6t13.5 -14q13 -22 19.5 -36.5t11 -27.5t10 -26.5t15.5 -34.5q10 21 15.5 33.5t11.5 24t13 24.5t20 35q5 7 13.5 13.5t19.5 6.5q29 0 52 -1t53 -7q11 -2 13.5 -10t-0.5 -15q-15 -32 -30 -60
t-30 -55t-30.5 -54t-32.5 -57q17 -30 33.5 -57t32 -54t30 -55.5t27.5 -60.5q2 -8 0 -16t-13 -10q-30 -5 -56.5 -6t-55.5 -2q-11 0 -19.5 7t-12.5 14q-13 22 -20 35t-11.5 24t-9.5 23t-15 33q-10 -21 -17 -37.5t-12.5 -30.5t-11 -27.5t-13.5 -27.5q-5 -8 -13 -14t-19 -6
q-18 3 -30.5 5t-23 5t-20.5 6.5t-24 7.5q-10 3 -12.5 10.5t-0.5 14.5q12 33 25.5 60.5t27 53t28 51t29.5 54.5q-15 29 -29.5 54.5t-28 51t-27 52.5t-25.5 59z" />
    <glyph glyph-name="v" unicode="v" horiz-adv-x="413" 
d="M1 465q-2 9 0 19t11 14q13 6 23 9.5t20 5.5t22 4t28 6q11 0 19.5 -8t11.5 -19q11 -65 22.5 -125.5t20.5 -113.5q2 -7 4 -7q3 0 4 6q14 63 25 122.5t29 122.5q2 9 11 17.5t19 8.5q14 0 23.5 -1t19 -3.5t20 -5.5l24.5 -7q9 -2 11 -13t0 -21q-22 -117 -53.5 -227t-64.5 -226
q-3 -11 -24 -17t-45 -6t-45 6t-25 17q-17 53 -32 109.5t-28.5 113.5t-26 112.5t-24.5 106.5z" />
    <glyph glyph-name="w" unicode="w" horiz-adv-x="677" 
d="M167 191q8 -20 20 -20q10 0 20 15q18 29 21 63q3 36 4 95.5t3 124.5q1 23 7.5 27.5t23.5 4.5h82q11 0 20.5 -7t8.5 -22q-1 -40 -1.5 -81.5t0.5 -78t4.5 -66t10.5 -46.5q5 -14 15.5 -21t21.5 -7t21.5 8t15.5 25q6 21 8 56t1.5 74.5t-2.5 79.5t-4 70q-1 19 6.5 22.5
t21.5 6.5l101 20q2 0 3 0.5t3 0.5q11 0 15.5 -9t5.5 -22q2 -43 2 -90.5t-1.5 -93t-4 -84.5t-5.5 -65q-4 -37 -20 -68t-41 -53.5t-55.5 -35.5t-63.5 -13t-65.5 14t-60.5 46q-29 -32 -61 -46.5t-64 -14.5q-30 0 -58 12t-50.5 34t-38 53.5t-20.5 70.5q-3 23 -6.5 59t-6 79.5
t-3.5 91t0 91.5q0 16 7 25.5t24 9.5q22 -2 43.5 -5.5t46.5 -6.5q13 -2 22.5 -9t8.5 -24q-1 -43 -0.5 -89t2 -86.5t5 -71t7.5 -43.5z" />
    <glyph glyph-name="n" unicode="n" horiz-adv-x="442" 
d="M9 360q9 44 22.5 73t35 47t53.5 25.5t77 7.5q91 0 136 -56.5t49 -170.5q2 -36 2 -67.5t-0.5 -62.5t-1.5 -62t-3 -64q-1 -15 -9.5 -22.5t-19.5 -7.5h-75q-17 0 -24 5t-8 28q-1 26 0.5 65t2 80.5t-1.5 80t-8 63.5q-4 13 -14.5 18.5t-23.5 5.5q-16 0 -30 -6t-17 -17
q-5 -13 -6 -43.5t-0.5 -71t2 -86t2.5 -89.5q2 -33 -31 -33h-85q-16 0 -23 10t-8 26q-1 44 -1.5 92t0 92t2.5 81t6 59z" />
    <glyph glyph-name="g" unicode="g" horiz-adv-x="410" 
d="M224 322q0 30 -8 42t-23 12q-2 0 -4.5 -0.5t-4.5 -0.5q-15 -3 -22 -18.5t-9.5 -35.5t-1 -40t4.5 -31q5 -21 12.5 -33t21.5 -11q14 0 21 15.5t10 35t3 38.5v27zM361 64q0 -61 -12 -104t-35 -70t-55.5 -39t-73.5 -12q-38 0 -82 9t-93 26q-12 4 -11 14t3 18q8 24 17 46
t23 44q2 3 8 3t12 -2q63 -19 99 -19q39 0 51 20.5t8 58.5q-1 8 -6 8q-1 0 -5 -2q-10 -7 -19.5 -8.5t-20.5 -2.5q-43 -1 -73.5 14.5t-50 41.5t-29.5 59.5t-12.5 70.5t1 73.5t10.5 67.5q17 74 55 109t103 35q42 0 74.5 -5t65.5 -6q16 -1 25 -4t11 -16q4 -19 6 -52t3 -73
t1.5 -84t1 -85t0.5 -76.5v-57.5z" />
    <glyph glyph-name="z" unicode="z" horiz-adv-x="393" 
d="M41 374q-21 0 -26 21q-8 26 -13 49.5t0 55.5q1 9 12.5 13.5t20.5 4.5q50 -1 75 -2t40 -1q12 0 22 0.5t25 1t40 2t67 2.5q9 0 20 -4.5t13 -13.5q4 -32 3.5 -55t-2.5 -50q0 -8 -18.5 -36t-43.5 -63t-51.5 -71t-44.5 -61q-7 -9 -3 -13.5t14 -4.5q11 0 18 -0.5t13 -0.5
q10 0 16.5 0.5t14 1t19 1t30.5 1.5q10 0 17.5 -6t8.5 -15q2 -27 2.5 -54t-3.5 -59q-2 -9 -13.5 -13.5t-19.5 -4.5h-155h-101q-9 0 -20.5 4.5t-12.5 13.5q-2 16 -3 35.5t-1 39.5t0.5 38.5t1.5 31.5q1 8 7.5 21t11.5 19q11 12 26 29t32 37t35.5 41t35.5 42q7 8 3 14t-14 6
q-22 0 -31.5 0.5t-16 0.5t-17 0.5t-34.5 0.5z" />
    <glyph glyph-name="f" unicode="f" horiz-adv-x="367" 
d="M306 558q-25 12 -42 12q-21 0 -30 -18.5t-11 -51.5q0 -8 -0.5 -15t-1.5 -15q5 0 14.5 -0.5t20.5 -1l22 -1t18 -1.5q8 -1 16 -6t8 -14q1 -13 2 -22.5t1 -18.5t-1 -19.5t-3 -25.5q-2 -8 -12.5 -12.5t-19.5 -4.5q-7 0 -17.5 -0.5l-21 -1t-19 -0.5h-13.5q-2 -68 -0.5 -139.5
t4.5 -163.5q0 -10 -5 -22t-15 -14t-18 -2h-16q-20 0 -37.5 2t-37.5 4q-10 1 -16 9t-6 18q-2 69 -2 149.5t2 160.5q-8 0 -16.5 -0.5t-19.5 -0.5q-8 0 -19 4.5t-12 12.5q-2 15 -2 26.5t1 22t2.5 20.5t2.5 23q1 9 8.5 14.5t15.5 5.5h23.5t19.5 1q2 46 6.5 87.5t21 73t49.5 50.5
t91 19q14 0 36 -3t44 -10t38.5 -18.5t18.5 -28.5q1 -4 1 -15t-5 -24t-17 -26t-36 -22q-1 -1 -4 -1t-11 4z" />
    <glyph glyph-name="d" unicode="d" horiz-adv-x="429" 
d="M136 509q8 1 16 1.5t16 0.5q13 0 25 -1.5t24 -3.5q-1 45 -1.5 89t-2.5 87q-1 10 4.5 23t16.5 14q19 2 32.5 3t26.5 1q11 0 22.5 -0.5t25.5 -1.5q10 -1 16 -9.5t7 -19.5q9 -186 6 -349t-6 -303q0 -10 -6.5 -19t-16.5 -10q-31 -2 -66.5 -6.5t-76.5 -4.5h-13q-51 0 -85 17
t-54.5 47t-30 71t-13.5 89q-4 51 -1 99.5t17.5 87.5t42.5 65.5t75 32.5zM151 183q6 -21 16 -33t21 -12q20 0 29 35q0 34 0.5 68t0.5 69q0 7 -1.5 16t-4.5 18t-8 16t-13 9q-3 1 -10 1q-27 0 -36 -46q-14 -71 6 -141z" />
    <glyph glyph-name="e" unicode="e" horiz-adv-x="432" 
d="M352 140q11 -5 13.5 -14.5t-2.5 -20.5q-14 -29 -29.5 -49t-35.5 -32.5t-45 -18t-57 -5.5q-44 0 -78.5 17t-59.5 47t-39.5 71t-17.5 89q-4 51 5 100.5t31 90t56 67.5t81 33q9 1 17.5 1.5t17.5 0.5q45 0 80 -15t56 -45q23 -33 29 -74t-3.5 -78.5t-35.5 -65.5t-67 -36
q-6 -2 -12 -2h-13q-24 0 -47 6.5t-41 14.5q-1 1 -3 1q-4 0 -4 -6t1.5 -13t3.5 -13.5t2 -7.5q5 -20 17.5 -29.5t26.5 -9.5q27 0 43 25q3 5 8.5 9t11.5 4q3 0 7 -2q13 -6 22.5 -11t19 -9.5l19 -9t22.5 -10.5zM151 326q0 -2 1.5 -6t4.5 -6q13 -10 39 -10q18 0 34.5 8t21.5 27
q2 12 -7 26.5t-23 18.5q-4 1 -7 1.5t-7 0.5q-16 0 -30.5 -10t-22.5 -34q-2 -5 -2 -8.5t-2 -7.5z" />
    <glyph glyph-name="h" unicode="h" horiz-adv-x="458" 
d="M32 712q10 0 20.5 0.5t21.5 0.5q12 0 24.5 -1t25.5 -3q8 -1 14.5 -7.5t6.5 -14.5q2 -24 2 -51t-0.5 -55.5l-1 -57t0.5 -55.5q1 -9 7 -9q5 0 8 1q36 9 66 9q56 0 92 -24.5t56 -61.5q7 -13 11.5 -39.5t7.5 -59t4 -68.5t1 -69.5t-1 -61.5t-2 -44q-1 -8 -4 -14.5t-11 -8.5
q-27 -8 -56 -12t-58 -4q-8 0 -15.5 6t-7.5 15q-1 23 -1 51t-0.5 57.5t-0.5 59t-1 55.5q-2 32 -15 55t-48 23q-10 0 -24 -3q-4 -1 -7 -3t-3 -10q0 -31 1.5 -68t2 -75t0.5 -74t-3 -65q0 -8 -6.5 -14t-14.5 -8q-13 -2 -25.5 -3t-24.5 -1q-11 0 -21.5 0.5t-20.5 0.5q-8 1 -17 7
t-10 15q-5 162 -5 334t5 334q1 8 10 14t17 7z" />
    <glyph glyph-name="m" unicode="m" horiz-adv-x="685" 
d="M17 344q5 39 20.5 70.5t38 53.5t50.5 34t58 12q32 0 64 -14.5t61 -46.5q28 32 60.5 46.5t65.5 14.5t63.5 -13t55.5 -36t41 -54t20 -68q3 -26 5.5 -62t4 -77t1.5 -85.5t-2 -87.5q-1 -14 -7 -22.5t-20 -8.5h-101q-14 0 -21.5 5t-6.5 25q2 30 4 69.5t2.5 79.5t-1.5 74.5
t-8 55.5q-5 17 -15.5 25t-21.5 8t-21 -7t-16 -21q-7 -17 -10.5 -48.5t-4.5 -70.5t-0.5 -81.5t1.5 -83.5q1 -15 -8.5 -22.5t-20.5 -7.5h-82q-17 0 -23.5 5t-7.5 28q-1 32 -1.5 65.5t-1.5 64.5t-1.5 57.5t-2.5 44.5q-3 34 -21 63q-10 15 -20 15q-12 0 -20 -20
q-4 -13 -7.5 -43.5t-5 -71t-2 -86t0.5 -89.5q2 -33 -31 -33h-90q-17 0 -24 10t-7 26q-1 44 0 89.5t3.5 86.5t6 75.5t6.5 56.5z" />
    <glyph glyph-name="i" unicode="i" horiz-adv-x="201" 
d="M17 477q1 10 6.5 18.5t15.5 9.5q14 1 24 1.5t20 0.5q11 0 23 -1t30 -3q10 -2 14.5 -14t5.5 -21q3 -55 2.5 -102t-2 -95.5t-2 -104.5t2.5 -128q0 -10 -5 -22t-15 -14t-18 -2h-16q-20 0 -37.5 2t-37.5 4q-10 1 -16 9t-7 18q-2 113 0.5 225.5t11.5 218.5zM81 573q81 0 81 81
q0 42 -27.5 61.5t-65.5 19.5t-53.5 -24.5t-15.5 -56.5q0 -34 18 -56.5t63 -24.5z" />
    <glyph glyph-name="l" unicode="l" horiz-adv-x="205" 
d="M12 708q1 10 6.5 18.5t15.5 9.5q14 1 24 1.5t20 0.5q11 0 23 -1t30 -3q10 -2 14.5 -14t5.5 -22q2 -36 2 -85.5t-0.5 -107t-1 -119.5t-1 -123.5t-0.5 -119t2 -105.5q0 -10 -5 -22t-15 -14t-18 -2h-16q-20 0 -37.5 2t-37.5 4q-10 1 -16 9t-6 18q-1 38 -1 92.5v118t1 130.5
t2.5 129.5t3.5 116t5 88.5z" />
    <glyph glyph-name="j" unicode="j" horiz-adv-x="245" 
d="M44 477q1 10 6.5 18.5t15.5 9.5q14 1 24 1.5t20 0.5q11 0 23 -1t30 -3q9 -2 14 -14t5 -21q3 -55 2 -100t-2.5 -91.5t-2 -100.5t3.5 -126q4 -71 -6.5 -117t-33 -74.5t-56 -44t-74.5 -26.5q-3 -1 -11 -1q-11 0 -21.5 4.5t-14.5 14.5q-3 7 -7 19t-7.5 25t-6.5 25t-3 18
q-1 5 2 13.5t18 14.5q26 10 40 23.5t21 30.5t8 37.5t1 43.5q-1 110 0.5 210.5t11.5 210.5zM107 573q82 0 82 81q0 42 -27.5 61.5t-65.5 19.5q-39 0 -54.5 -24.5t-15.5 -56.5q0 -34 18.5 -56.5t62.5 -24.5z" />
    <glyph glyph-name="k" unicode="k" horiz-adv-x="444" 
d="M5 28q-1 62 -2.5 142t-2.5 168t0 178.5t5 171.5q1 9 6.5 17t14.5 9q13 1 24.5 1.5t22.5 0.5q14 0 27.5 -1t30.5 -3q9 -1 14 -12.5t5 -20.5q0 -12 -0.5 -35.5t-1 -53t-1 -61.5t-1 -61t-1 -52.5t-0.5 -35.5q8 13 18 30t21 36t22.5 39t20.5 38q8 16 13 22t17 6q7 0 11 -1
q19 -2 35.5 -7.5t34.5 -10.5q22 -6 30 -12.5t2 -26.5q-2 -9 -16.5 -34.5t-33 -56l-37 -61t-30.5 -49.5q24 -19 43.5 -47t35 -59.5t28 -63.5t21.5 -59q5 -15 5 -23.5t-4 -13t-11.5 -7t-16.5 -4.5q-18 -5 -31 -6.5t-30 -3.5q-5 0 -9 -0.5t-7 -0.5q-10 0 -15 4.5t-13 18.5
q-6 11 -13.5 27.5t-16.5 35t-18.5 37.5t-18.5 34q-3 7 -6 7q-4 0 -7 -7q-5 -9 -8.5 -13t-12.5 -15q1 -19 1 -47.5t1 -48.5q0 -9 -5 -20.5t-14 -12.5q-17 -2 -30.5 -3t-27.5 -1q-11 0 -22.5 0.5t-24.5 1.5q-9 1 -14.5 9t-6.5 17z" />
    <glyph glyph-name="question" unicode="?" horiz-adv-x="413" 
d="M124 455q-2 -6 -5.5 -10.5t-10.5 -4.5q-9 0 -27 1t-36 4.5t-31.5 11t-13.5 19.5q0 41 11.5 81t34.5 70.5t59 49.5t84 18q36 0 67.5 -5.5t56.5 -20t43 -39.5t26 -64q9 -43 4 -73t-19.5 -54.5t-37.5 -48.5t-51 -54q-7 -7 -17.5 -18t-21 -23.5t-18.5 -25.5t-10 -25
q-2 -8 -5.5 -9t-10.5 -1q-4 -1 -9 -1h-11q-14 0 -31.5 1t-29.5 2q-3 1 -8.5 2t-4.5 9q5 46 16.5 75t27 48t32 31.5t31 25t24.5 28t13 41.5q3 32 -11 48.5t-35 16.5q-13 0 -26.5 -7t-25.5 -23q-5 -7 -8.5 -17.5t-6 -22t-4.5 -21.5t-4 -15zM156 173q42 0 62.5 -22.5
t20.5 -63.5q0 -36 -22.5 -60.5t-65.5 -26.5q-42 0 -59.5 23.5t-17.5 63.5q0 35 18.5 59.5t63.5 26.5z" />
    <glyph glyph-name="at" unicode="@" horiz-adv-x="612" 
d="M334 114q-22 -13 -49 -13q-47 0 -82 38q-18 21 -27.5 50t-11 60t5.5 61.5t21 53.5q21 35 53 47t70 12q7 -1 20.5 -3.5t27 -7t24 -11.5t10.5 -17q-1 -11 -1.5 -21.5t-1.5 -21.5q-3 -31 -3 -63q1 -11 2 -28t5 -34q3 -12 8 -21.5t13 -14.5q4 -3 12 -3q9 0 18 3q8 3 10.5 12
t2.5 16q2 35 2.5 70t-4.5 70q-9 69 -50.5 108.5t-118.5 41.5q-53 1 -90 -25t-59 -65.5t-31 -87t-7 -89.5q2 -35 7.5 -66.5t17.5 -57t33 -44t52 -28.5q16 -5 29 -7.5t25 -2.5q20 0 39 6.5t41 20.5q5 4 15 4q8 0 13 -4q13 -9 18 -20.5t14 -25.5q5 -8 3.5 -16t-7.5 -12
q-35 -23 -73 -33.5t-76 -10.5q-64 0 -110.5 23t-77.5 63t-47 92.5t-19 112.5q-5 88 20 172q30 101 97.5 152.5t173.5 51.5q117 -2 186.5 -66.5t83.5 -172.5q5 -40 5.5 -80t-2.5 -81q-3 -59 -39.5 -92.5t-93.5 -33.5q-28 0 -54 9.5t-43 29.5zM297 304q0 2 -1.5 0.5t-2.5 -1.5
q-7 -3 -8 -10q-4 -10 -5 -30t0 -31q0 -3 2.5 -9t5.5 -6q2 0 3 2.5t2 3.5q2 7 2.5 23t0.5 24t1 17t0 17z" />
    <glyph glyph-name="exclam" unicode="!" horiz-adv-x="201" 
d="M30 264q-4 56 -9 103t-8.5 92.5t-5.5 93.5t-1 108q0 11 6 20t17 10q21 2 38 4t37 2h16.5t18.5 -2t15 -14.5t5 -23.5q-2 -51 -4 -89t-4 -67.5t-4 -54t-4.5 -50t-4.5 -54.5t-4 -68q0 -10 -5 -23t-14 -14q-9 -2 -21 -2.5t-23 -0.5q-6 0 -11 0.5t-8 0.5q-10 1 -15.5 9.5
t-6.5 19.5zM82 175q-45 -2 -64 -26.5t-19 -59.5q0 -39 17.5 -63t59.5 -24q44 2 66.5 26.5t22.5 60.5q0 41 -20.5 63.5t-62.5 22.5z" />
    <glyph glyph-name="quotedbl" unicode="&#x22;" horiz-adv-x="408" 
d="M-3 611q0 42 22.5 64.5t64.5 22.5t60 -26t18 -61q0 -42 -15 -87t-44 -76q-3 -4 -7 -4q-1 0 -2 0.5t-2 0.5q-8 2 -17 8t-14 11q-6 4 -2 10q11 14 15 22.5t6 25.5q0 3 -2 3h-4q-42 0 -59.5 23t-17.5 63zM265 698q42 0 60 -26t18 -61q0 -42 -15 -86.5t-44 -76.5q-3 -4 -7 -4
q-1 0 -2 0.5t-2 0.5q-9 2 -17.5 8t-13.5 11q-2 2 -3 5t1 5q10 14 14.5 22.5t6.5 25.5q0 3 -3 3h-3h-12q-37 2 -51 27t-14 59q0 42 22.5 64.5t64.5 22.5z" />
    <glyph glyph-name="numbersign" unicode="#" horiz-adv-x="760" 
d="M-2 219q1 6 9 8t16 3q18 1 55.5 1t85.5 1q8 19 14.5 38t14.5 39q-37 -1 -65.5 -1h-45.5q-7 0 -9.5 6.5t-2.5 11.5q-1 17 -2.5 27t-1.5 19t1 19t4 27q1 5 9 7.5t16 2.5q18 1 55.5 1.5t86.5 0.5q17 45 29.5 79t20.5 51q2 7 7.5 14t10.5 6q17 -3 26.5 -5.5t18 -6t17.5 -8
t24 -11.5q5 -2 10 -6.5t3 -11.5q-5 -15 -15 -41t-23 -60h82q17 45 30 79t20 51q3 7 8 14t10 6q17 -3 27 -5.5t18 -6t17 -8t24 -11.5q5 -2 10.5 -6.5t2.5 -11.5q-5 -15 -15 -41t-23 -60h94q7 0 15.5 -1.5t9.5 -7.5q4 -16 5.5 -24.5t1.5 -15.5t-0.5 -16t-0.5 -26
q-1 -5 -3 -11.5t-9 -7.5q-21 -1 -62.5 -2t-94.5 -3q-8 -20 -16.5 -41t-16.5 -42h98q7 0 15.5 -2t9.5 -7q4 -16 5.5 -25t1.5 -16t-0.5 -15.5t-0.5 -25.5q-1 -5 -3 -12t-9 -7q-22 -2 -64.5 -2.5t-97.5 -2.5q-20 -52 -36.5 -92.5t-25.5 -60.5q-3 -6 -11 -6q-9 0 -20.5 4t-24 9
t-23.5 11t-18 11q-5 3 -3.5 12t4.5 15q5 14 14 38t20 56q-22 -1 -44.5 -1t-44.5 -1q-20 -50 -35.5 -89t-24.5 -59q-3 -6 -11 -6q-9 0 -20.5 4t-24 9t-23.5 11t-18 11q-5 3 -3.5 12t4.5 15q5 14 13.5 37t19.5 53q-37 0 -65.5 -0.5t-45.5 -0.5q-7 1 -9.5 7.5t-2.5 11.5
q-2 17 -3 27t-1 19t1 19t4 26zM290 232h86l14 40t15 40q-21 0 -42 -0.5t-42 -0.5q-8 -20 -15.5 -39.5t-15.5 -39.5z" />
    <glyph glyph-name="dollar" unicode="$" 
d="M280 457q-1 -1 -4 -1q-13 0 -17 8q-11 17 -27 27.5t-36 10.5q-9 0 -14 -1q-14 -3 -21.5 -12t-8 -20.5t6 -23t19.5 -18.5q17 -9 39 -16.5t44.5 -16.5t42.5 -22t34 -34t19.5 -52t-2.5 -76q-8 -46 -39 -75t-75 -41q-1 -10 -1 -35.5t-1 -46.5q0 -6 -5 -8t-9 -2
q-14 -1 -26 -1.5t-23 -0.5t-22 1t-23 3q-4 2 -5.5 9t-1.5 12v38.5t-1 28.5q-38 9 -65 27t-47 35q-7 7 -6.5 15.5t1.5 12.5q5 14 19 35t28 33q7 5 13 5q5 0 11 -4q23 -17 48 -27t49 -12h9q29 0 42.5 11.5t14 26.5t-11 29t-33.5 19q-28 7 -59.5 18.5t-58.5 31t-43.5 50
t-14.5 75.5q3 51 32.5 84.5t71.5 47.5q1 7 1 30v41q0 6 1.5 13t5.5 8q14 3 26 4t24 1q11 0 21.5 -0.5t22.5 -1.5q4 -1 9 -3t5 -7q1 -22 1 -47t1 -35q37 -11 64 -34t42 -50q2 -5 1.5 -8t-2.5 -8q-6 -13 -24.5 -27.5t-41.5 -23.5z" />
    <glyph glyph-name="percent" unicode="%" horiz-adv-x="624" 
d="M217 435q-12 -31 -38 -46t-56 -15q-23 0 -44.5 9t-37.5 27q-18 21 -27.5 50t-11 60.5t5.5 62t21 54.5q19 31 43 44.5t48 13.5q26 0 49.5 -13t37.5 -36q14 -21 20 -50t6 -58.5t-4.5 -57t-11.5 -45.5zM207 13q-2 -6 -12 -6q-5 0 -13 2q-20 4 -32.5 11t-35.5 20
q-5 3 -3.5 13t3.5 17q8 22 25.5 68.5t39 106t45.5 125t46.5 124.5t40 106t26.5 68q3 8 8.5 15.5t11.5 6.5q8 0 21 -4t26 -8.5t24.5 -9.5t16.5 -8t11 -8t4 -12q-9 -24 -28.5 -73.5t-44 -111t-52 -129.5t-52.5 -129.5t-45.5 -110.5t-30.5 -73zM538 65q-12 -31 -38 -46t-56 -15
q-23 0 -44.5 9t-37.5 27q-18 21 -27.5 50t-10.5 60.5t5.5 62t21.5 54.5q19 31 42.5 44.5t47.5 13.5q26 0 49.5 -13t37.5 -36q15 -21 21 -50t6 -58.5t-5 -57t-12 -45.5zM461 205q-3 12 -17 12q-10 0 -14 -12q-4 -11 -6 -31t0 -34q2 -11 7.5 -18t12.5 -7q10 0 16 16
q2 5 3.5 14t2 19.5t-0.5 21t-4 19.5zM140 575q-3 12 -17 12q-10 0 -14 -12q-4 -11 -6 -31t0 -34q2 -11 7.5 -18t12.5 -7q11 0 16 15q5 11 5.5 34.5t-4.5 40.5z" />
    <glyph glyph-name="ampersand" unicode="&#x26;" horiz-adv-x="524" 
d="M462 137q5 -10 -2 -19q-33 -43 -72 -77q-4 -2 -7 -2q-7 0 -10 5l-26 32q-30 -37 -74.5 -56.5t-90.5 -19.5q-35 0 -66 11.5t-54 35.5q-30 31 -43.5 63.5t-15 64t6.5 61.5t22 55.5t31 46.5t33 35q-26 28 -39.5 64t-14 73.5t12 74t37.5 65.5q23 25 54.5 37.5t65.5 12.5
q32 0 62.5 -11.5t52.5 -34.5q30 -31 38.5 -64.5t-0.5 -69t-33.5 -74.5t-61.5 -81q2 -3 13 -17t24 -30.5t25 -30.5t16 -17l4.5 5.5t10 12.5t10 12.5l4.5 5.5q3 5 8 5q4 0 8 -4q17 -12 27 -20t25 -22q3 -4 1.5 -7.5t-2.5 -8.5q0 -3 -3 -10t-7.5 -16l-9 -18t-8.5 -16
q10 -11 25 -25t23 -27zM224 577q-10 6 -19 6q-15 0 -26 -13t-14.5 -32.5t1.5 -42t22 -40.5q15 12 27.5 29.5t19 35.5t5 33.5t-15.5 23.5zM139 164q8 -13 24 -23t36 -10q17 0 34 9t32 32l-90 116q-34 -28 -42 -64t6 -60z" />
    <glyph glyph-name="quotesingle" unicode="'" horiz-adv-x="200" 
d="M82 701q42 0 62.5 -23t20.5 -64q0 -42 -15.5 -86.5t-44.5 -76.5q-3 -4 -7 -4q-1 0 -1.5 0.5t-1.5 0.5q-9 2 -18 8t-14 11t-2 10q11 14 15 22.5t6 25.5q0 3 -2 3h-4q-42 0 -59.5 23t-17.5 63q0 36 19 60.5t64 26.5z" />
    <glyph glyph-name="parenleft" unicode="(" horiz-adv-x="275" 
d="M142 620q11 7 19 7q4 0 8 -2q14 -8 28.5 -24.5t20.5 -27.5q5 -10 -3 -18q-42 -51 -64 -126.5t-22.5 -158t21 -162.5t65.5 -140q3 -4 4.5 -8.5t-1.5 -9.5q-6 -11 -20.5 -27.5t-28.5 -24.5q-4 -2 -8 -2q-8 0 -19 7q-49 35 -80.5 94t-46 128.5t-13 144.5t18 142.5
t47.5 122.5t74 85z" />
    <glyph glyph-name="parenright" unicode=")" horiz-adv-x="260" 
d="M81 -97q-9 -7 -18 -7q-4 0 -8 2q-7 4 -14.5 10.5t-14.5 14t-12.5 15t-8.5 12.5t-1.5 9.5t4.5 8.5q43 51 65 126.5t22 158t-21.5 162.5t-65.5 140q-3 4 -4.5 8.5t1.5 9.5t8.5 12.5t12.5 15t14.5 14t14.5 10.5q4 2 8 2q9 0 18 -7q50 -35 81 -94t45.5 -128.5t13 -144
t-18 -142.5t-47.5 -123t-74 -85z" />
    <glyph glyph-name="asterisk" unicode="*" horiz-adv-x="352" 
d="M103 688q0 9 7 9h76q3 0 6.5 -1.5t3.5 -5.5q-3 -20 -7 -39t-7 -39q0 -5 2 -5t3 1q17 8 34.5 15t33.5 15q6 3 10 3t5.5 -3t3.5 -8q5 -16 10 -31t10 -31q4 -13 -9 -16q-18 -3 -39 -4.5t-39 -4.5q-4 -1 -5.5 -2t1.5 -5q14 -14 30 -29t29 -29q5 -5 5 -8t-7 -8l-57 -42
q-6 -4 -7 -4q-4 0 -7 8q-9 16 -16 34t-16 34q-3 5 -5 5t-5 -4q-8 -16 -18.5 -35t-19.5 -36q-2 -5 -6 -5t-9 5q-14 10 -28 19.5t-28 20.5q-9 7 -1 17q13 13 28 24.5t27 24.5q7 7 -3 9q-18 3 -38.5 7.5t-38.5 7.5q-8 2 -9 4.5t1 9.5q6 17 11.5 34.5t11.5 34.5q2 7 6 7
q1 0 12 -4.5t24.5 -10.5t26 -11.5t15.5 -6.5l4 -2q3 0 1 6q-2 20 -6 37.5t-7 37.5z" />
    <glyph glyph-name="plus" unicode="+" horiz-adv-x="472" 
d="M3 309q0 5 2.5 10.5t7.5 5.5q22 1 57.5 1h77.5v121q1 6 2 13t6 8q14 3 26.5 4t25.5 1q12 0 25 -0.5t27 -1.5q4 0 9.5 -2.5t5.5 -7.5q1 -22 1.5 -57.5t0.5 -77.5h77t57 -1q6 0 8 -5.5t2 -10.5q2 -28 2.5 -51.5t-4.5 -51.5q-2 -5 -9 -6.5t-13 -1.5q-19 -1 -50.5 -1h-69.5
q0 -42 -0.5 -77t-1.5 -57q0 -6 -5.5 -8t-9.5 -2q-14 -1 -27 -2t-25 -1q-13 0 -25.5 1.5t-26.5 3.5q-5 2 -6 9t-2 13v120h-70t-51 1q-6 0 -13 1.5t-8 6.5q-6 28 -5.5 51.5t2.5 51.5z" />
    <glyph glyph-name="comma" unicode="," horiz-adv-x="214" 
d="M85 173q42 0 62.5 -22.5t20.5 -63.5q0 -43 -15.5 -87.5t-44.5 -76.5q-3 -3 -10 -3q-9 3 -18 8.5t-14 10.5q-2 2 -2.5 5t1.5 6q10 13 14 22t6 25q0 3 -2 3h-4q-42 0 -59.5 24t-17.5 63q0 35 19 59.5t64 26.5z" />
    <glyph glyph-name="hyphen" unicode="-" horiz-adv-x="464" 
d="M409 321q6 0 8 -5.5t2 -10.5q2 -28 2.5 -51.5t-5.5 -51.5q-1 -5 -8 -6.5t-13 -1.5h-370q-6 0 -13 1.5t-8 6.5q-6 28 -5.5 51.5t2.5 51.5q0 5 2.5 10.5t7.5 5.5q15 0 37 0.5t48 1t55 0.5h59h59.5t55.5 -0.5t47.5 -1t36.5 -0.5z" />
    <glyph glyph-name="period" unicode="." horiz-adv-x="268" 
d="M82 173q42 0 62.5 -22.5t20.5 -63.5q0 -36 -22.5 -60.5t-65.5 -26.5q-42 0 -59.5 23.5t-17.5 63.5q0 35 18.5 59.5t63.5 26.5z" />
    <glyph glyph-name="slash" unicode="/" horiz-adv-x="481" 
d="M-1 -66q7 16 24.5 55.5t41.5 95t53.5 121.5t60.5 134.5t60.5 134.5t54.5 120.5t43 94.5t25 55q3 6 10 6q5 0 9 -2q26 -10 47 -18.5t44 -25.5q4 -2 2 -10t-5 -15q-6 -14 -22.5 -52t-40.5 -91t-52.5 -117.5t-58.5 -131t-58.5 -130.5t-52.5 -117.5t-41.5 -91t-23.5 -51.5
q-3 -6 -7.5 -13t-9.5 -6q-28 5 -48 15t-45 23q-4 2 -8 6.5t-2 10.5z" />
    <glyph glyph-name="zero" unicode="0" horiz-adv-x="482" 
d="M399 554q8 -21 14 -57.5t9.5 -81t3 -94t-7 -96t-19 -87t-33.5 -67.5q-26 -34 -64 -52.5t-80 -18.5q-50 0 -97 29t-78 96q-19 41 -32 100t-15.5 122.5t7 126.5t35 113t69 81t108.5 30q40 0 69 -12t50 -31.5t35.5 -45.5t25.5 -55zM257 176q8 25 11.5 68.5t3.5 91t-4 91
t-12 67.5q-11 30 -22 43t-22 13q-10 0 -19 -9t-16 -24t-11.5 -34t-5.5 -38q-3 -63 -2.5 -126t17.5 -126q8 -28 20 -41t26 -13q11 0 21 9.5t15 27.5z" />
    <glyph glyph-name="one" unicode="1" horiz-adv-x="287" 
d="M89 504q0 7 -5 7t-10 -5l-2 -1v0l-4 -3q-7 -5 -15 -5q-9 0 -19.5 11.5t-19 27.5t-15 31.5t-7.5 22.5q-2 9 -0.5 19t9.5 15q24 15 42 27t35 22t36.5 18.5t46.5 17.5q8 3 17 3q20 0 37.5 -12t17.5 -35q3 -163 1 -323t-7 -324q0 -5 -5.5 -8.5t-10.5 -4.5q-18 -2 -32.5 -3
t-28.5 -1q-22 0 -51 3q-6 0 -11.5 5.5t-5.5 11.5q-2 120 4 241.5t3 241.5z" />
    <glyph glyph-name="two" unicode="2" 
d="M122 480q-2 -6 -5 -10.5t-11 -4.5q-9 0 -27 1t-36 4.5t-31.5 11t-13.5 19.5q0 41 11.5 81t34.5 70.5t59 49.5t84 18q36 0 67.5 -5.5t57 -20t43 -39.5t25.5 -64q9 -43 2 -84.5t-24.5 -80.5t-42.5 -75.5t-52 -68.5q-21 -24 -44.5 -59.5t-40.5 -73.5q-2 -5 1 -8t8 -2
q26 1 46.5 1h40.5h39.5t46.5 -2q5 0 7 -6t2 -11q2 -30 2.5 -55.5t-4.5 -54.5q-1 -5 -7 -7t-11 -2q-96 -3 -184 -3q-71 0 -146 3q-5 0 -6.5 5.5t-2.5 9.5q-1 14 -3.5 31.5t-3.5 36.5t0.5 38.5t9.5 38.5q22 51 46 87t47.5 62.5t45.5 48t40.5 44.5t32 51t19.5 67q5 30 -9.5 47
t-36.5 17q-14 0 -27.5 -7t-25.5 -23q-5 -7 -8.5 -17.5t-6 -22t-4.5 -21.5t-4 -15z" />
    <glyph glyph-name="three" unicode="3" horiz-adv-x="440" 
d="M135 243q2 -6 4 -16t4 -21t5.5 -22t9.5 -17q17 -20 39 -20q20 0 36 17.5t14 43.5q-3 36 -11.5 58t-25 34t-42 15.5t-60.5 3.5q-5 0 -8.5 3.5t-4.5 8.5q-6 45 0 89q0 4 3.5 7.5t7.5 4.5q21 4 43 3t40.5 4t32 21.5t17.5 54.5q2 25 -12 43.5t-34 18.5t-35 -18
q-11 -13 -12 -26t-5 -24q-2 -6 -5.5 -10.5t-10.5 -4.5q-9 0 -28 1t-38 4.5t-33.5 11t-14.5 19.5q0 39 11 74.5t32.5 62t52.5 42t70 15.5q5 0 8.5 -0.5t8.5 -0.5q35 -3 66 -9.5t56.5 -21t43.5 -38t27 -60.5q5 -20 5 -51t-9 -62t-27.5 -57t-51.5 -37q-5 -3 2 -7
q32 -15 51.5 -44t28 -63.5t8.5 -71.5t-7 -70q-8 -39 -25.5 -64t-43 -39.5t-57 -20t-67.5 -5.5q-48 0 -84 18.5t-59 49.5t-34.5 70.5t-11.5 80.5q0 12 14.5 19.5t33.5 11t38.5 5t28.5 1.5q7 0 10 -4.5t5 -10.5z" />
    <glyph glyph-name="four" unicode="4" horiz-adv-x="414" 
d="M361 682q0 -33 -0.5 -85.5t-0.5 -114.5v-129.5t-1 -130t-2.5 -116.5t-3.5 -89q0 -6 -6 -10.5t-12 -5.5q-14 -2 -24.5 -2.5t-21.5 -0.5q-16 0 -42 3q-7 1 -13 6t-7 12q-2 12 -2.5 28t0 33t1.5 33t1 28q0 7 -9 7q-29 0 -61 -1t-64 -1h-31.5t-29.5 2q-8 1 -14.5 5.5
t-8.5 12.5q-5 26 -10.5 54t5.5 53q47 112 106 216.5t121 208.5q5 8 14.5 9.5t17.5 1.5q5 0 21 -1.5t33 -5t30.5 -8.5t13.5 -12zM234 283v29.5v38v41v38.5q0 6 -7 6q-4 0 -7 -5q-8 -14 -17 -32.5t-17.5 -39t-16.5 -40t-14 -34.5q-2 -3 -1 -6.5t6 -4.5q8 -1 17 -1h18h33
q6 2 6 10z" />
    <glyph glyph-name="seven" unicode="7" horiz-adv-x="441" 
d="M224 554q4 8 -5 8q-4 0 -6 -1h-4q-9 0 -32.5 0.5t-50.5 1.5t-51.5 1.5t-33.5 0.5h-5q-13 0 -17.5 3t-7.5 16q-5 19 -9.5 43t-0.5 43q2 8 7 15t13 9q20 3 55 4.5t76 1.5q30 0 61.5 -0.5t59.5 -2t51 -2.5t38 -3q10 -1 19 -7.5t15 -16.5t7.5 -22t-3.5 -23
q-28 -66 -61.5 -147.5t-68.5 -165.5t-70.5 -164.5t-66.5 -145.5q-3 -6 -12 -6q-3 0 -5 1q-28 8 -51 16.5t-49 22.5q-5 3 -7 9t0 11q20 49 48.5 115t59 135t59 135t48.5 115z" />
    <glyph glyph-name="eight" unicode="8" horiz-adv-x="412" 
d="M370 219q1 -42 -5 -81t-25 -69.5t-54 -50t-93 -21.5q-54 0 -91 13t-59.5 38.5t-32.5 64.5t-11 90q0 22 1 40.5t7 37t18 38.5t33 44q-18 12 -30.5 47.5t-14.5 79t7.5 87t34.5 72.5q23 26 58.5 38t74.5 12q35 0 68.5 -9.5t57.5 -29.5q30 -24 42 -66t10.5 -86.5t-14.5 -84.5
t-33 -61q17 -24 27 -44t15.5 -37t7 -32t1.5 -30zM187 133q23 0 34.5 5.5t16 15.5t4.5 24t-1 30q-4 45 -14 65t-30 25q-3 1 -8 1q-18 0 -33.5 -18.5t-19.5 -58.5q-1 -15 -1.5 -31t4 -28.5t16 -21t32.5 -8.5zM179 426h8q27 0 39.5 18.5t15.5 42t0 44t-6 24.5q-21 25 -46 25
q-16 0 -29 -9t-20 -23q-5 -11 -5 -31t5 -39.5t14.5 -34.5t23.5 -17z" />
    <glyph glyph-name="nine" unicode="9" horiz-adv-x="414" 
d="M192 707q47 1 81 -18t55 -50.5t31 -71.5t9 -82q0 -42 -0.5 -83.5t-3 -82.5t-9 -81t-19.5 -79q-12 -39 -35.5 -69.5t-54.5 -51t-68 -31.5t-77 -11q-13 0 -18 9q-8 22 -13.5 45.5t-7.5 52.5q0 5 2 10.5t10 6.5q13 1 36 5.5t46.5 15.5t43.5 29.5t27 45.5q2 10 -6 10h-3
q-43 -9 -70 -9q-37 0 -64 16t-44.5 41.5t-26.5 58t-11 65.5t-0.5 69.5t5.5 77.5q4 40 20 70.5t40.5 50.5t56.5 30.5t68 10.5zM189 344q26 0 37.5 24t13.5 56t-3 63.5t-11 47.5q-6 15 -16.5 22.5t-21.5 7.5q-16 0 -30 -13t-19 -37q-3 -17 -4 -45t1 -50q2 -13 4 -27t7.5 -24.5
t15.5 -17.5t26 -7z" />
    <glyph glyph-name="quotedblright" unicode="&#x201d;" horiz-adv-x="371" 
d="M-3 611q0 42 22.5 64.5t64.5 22.5t60 -26t18 -61q0 -42 -15 -87t-44 -76q-3 -4 -7 -4q-1 0 -2 0.5t-2 0.5q-8 2 -17 8t-14 11q-6 4 -2 10q11 14 15 22.5t6 25.5q0 3 -2 3h-4q-42 0 -59.5 23t-17.5 63zM265 698q42 0 60 -26t18 -61q0 -42 -15 -86.5t-44 -76.5q-3 -4 -7 -4
q-1 0 -2 0.5t-2 0.5q-9 2 -17.5 8t-13.5 11q-2 2 -3 5t1 5q10 14 14.5 22.5t6.5 25.5q0 3 -3 3h-3h-12q-37 2 -51 27t-14 59q0 42 22.5 64.5t64.5 22.5z" />
    <glyph glyph-name="quoteright" unicode="&#x2019;" horiz-adv-x="191" 
d="M82 701q42 0 62.5 -23t20.5 -64q0 -42 -15.5 -86.5t-44.5 -76.5q-3 -4 -7 -4q-1 0 -1.5 0.5t-1.5 0.5q-9 2 -18 8t-14 11t-2 10q11 14 15 22.5t6 25.5q0 3 -2 3h-4q-42 0 -59.5 23t-17.5 63q0 36 19 60.5t64 26.5z" />
    <glyph glyph-name="quoteleft" unicode="&#x2018;" horiz-adv-x="175" 
d="M82 449q-42 0 -62.5 23t-20.5 64q0 42 15.5 86.5t44.5 76.5q3 4 7 4q1 0 1.5 -0.5t1.5 -0.5q9 -2 18 -8t14 -11q2 -2 3 -5t-1 -5q-11 -14 -15 -22.5t-6 -25.5q0 -3 2 -3h4q42 0 59.5 -23t17.5 -63q0 -36 -19 -60.5t-64 -26.5z" />
    <glyph glyph-name="quotedblleft" unicode="&#x201c;" horiz-adv-x="359" 
d="M178 532q0 42 15 87t44 76q3 4 7 4q1 0 2 -0.5t2 -0.5q8 -2 17 -8t14 -11q6 -4 2 -10q-11 -14 -15 -22.5t-6 -25.5q0 -3 2 -3h4q42 0 59.5 -23t17.5 -63q0 -42 -22.5 -64.5t-64.5 -22.5t-60 26t-18 61zM-3 532q0 42 15 86.5t44 76.5q3 4 7 4q1 0 2 -0.5t2 -0.5
q9 -2 17.5 -8t13.5 -11q2 -2 3 -5t-1 -5q-10 -14 -14.5 -22.5t-6.5 -25.5q0 -3 3 -3h15q37 -2 51 -27t14 -59q0 -42 -22.5 -64.5t-64.5 -22.5t-60 26t-18 61z" />
    </font>
</defs>
</svg>
