<svg width="61" height="61" viewBox="0 0 61 61" fill="none" xmlns="http://www.w3.org/2000/svg">
<rect width="61" height="61" rx="7" fill="#BF2226" fill-opacity="0.1"/>
<g clip-path="url(#clip0)">
<path d="M13.0226 30.5229C13.0237 24.6091 13.0695 18.6943 12.9992 12.7817C12.9735 10.5628 14.1918 8.96226 16.8563 9.00194C23.5431 9.10005 30.2321 9.03281 36.9211 9.03501C39.2338 9.03611 40.4164 10.1968 40.4231 12.4763C40.4309 15.2034 40.4175 17.9304 40.4298 20.6564C40.4454 24.2575 42.4789 26.5194 46.0881 26.9438C46.6632 27.011 47.1903 27.1201 47.2048 27.8036C47.2205 28.5652 46.6219 28.6468 46.0312 28.7107C42.5884 29.0822 40.441 31.4223 40.4309 34.8493C40.4175 39.4161 40.432 43.9828 40.4242 48.5496C40.4209 50.8346 39.2416 51.9964 36.9312 51.9975C30.1428 52.0019 23.3543 52.0019 16.567 51.9975C14.2242 51.9964 13.0282 50.8082 13.0249 48.4603C13.0159 42.4815 13.0215 36.5017 13.0226 30.5229ZM14.7725 29.6146C14.7725 33.8496 14.7669 38.0856 14.7758 42.3206C14.7792 43.5706 15.2795 44.0754 16.5123 44.0765C23.3287 44.0832 30.1461 44.0832 36.9624 44.0754C38.1763 44.0743 38.6732 43.607 38.6833 42.4154C38.7056 39.7567 38.7157 37.0969 38.681 34.4382C38.6565 32.5974 37.9719 30.9605 36.3974 29.9618C35.4069 29.3324 34.1662 29.0635 33.0104 28.724C32.4621 28.563 31.8524 28.4495 31.9864 27.8036C32.0557 27.4685 32.6028 27.1808 32.9903 26.9768C33.2662 26.8324 33.6414 26.8843 33.9663 26.8181C36.5928 26.2802 38.4544 24.273 38.6408 21.6341C38.7492 20.0975 38.6989 18.5499 38.6911 17.0078C38.6844 15.6906 38.2344 15.2662 36.8642 15.2651C30.1472 15.2607 23.4303 15.2596 16.7133 15.2651C15.179 15.2662 14.7781 15.6685 14.7758 17.2062C14.7691 21.342 14.7736 25.4788 14.7725 29.6146ZM38.6163 45.687C30.6486 45.687 22.7625 45.687 14.7691 45.687C14.7691 46.6228 14.7613 47.5355 14.7714 48.4471C14.7848 49.869 15.1734 50.2526 16.6139 50.2548C20.2711 50.2603 23.9294 50.257 27.5866 50.2581C30.7458 50.2581 33.9038 50.2504 37.0629 50.2625C37.7944 50.2658 38.5124 50.1115 38.5872 49.3278C38.7011 48.1076 38.6163 46.8708 38.6163 45.687ZM38.6118 13.626C38.6341 13.4618 38.681 13.2424 38.6889 13.0231C38.757 11.1007 38.441 10.7788 36.5057 10.7788C33.6782 10.7788 30.8496 10.7777 28.0221 10.7777C24.1628 10.7777 20.3035 10.7876 16.4442 10.7722C15.6592 10.7689 15.0059 10.9706 14.8574 11.7863C14.7446 12.4036 14.835 13.0561 14.835 13.626C22.8194 13.626 30.6866 13.626 38.6118 13.626ZM42.5593 27.8465C42.3985 27.9733 42.2389 28.1001 42.078 28.2268C41.1199 27.2182 40.1618 26.2108 39.5778 25.5968C38.9077 26.2361 37.9206 27.1786 37.3008 27.7705C37.9574 28.4704 38.9055 29.4812 39.8435 30.481C40.0892 30.1878 40.4946 29.6245 40.9826 29.1428C41.465 28.6666 42.03 28.2753 42.5593 27.8465Z" fill="#DB3743"/>
<path d="M28.9443 32.4014C28.6193 32.6131 28.3212 32.9438 27.9672 33.0176C25.0258 33.6327 24.3323 34.3238 23.7193 37.1732C23.6444 37.5182 23.1631 37.7784 22.8706 38.0782C22.5847 37.7673 22.119 37.494 22.0431 37.139C21.4412 34.3393 20.6718 33.5798 17.8677 33.0143C17.5149 32.9438 17.2446 32.4786 16.9353 32.1964C17.2714 31.901 17.5718 31.4072 17.9482 31.3444C20.473 30.9211 21.564 29.8607 22.0342 27.3585C22.1045 26.9826 22.5255 26.4668 22.8717 26.3863C23.5696 26.2254 23.688 26.8437 23.7706 27.3949C24.128 29.7747 25.4122 30.996 27.7695 31.3322C28.195 31.3929 28.5769 31.7555 28.9789 31.9782C28.9666 32.1193 28.9555 32.2603 28.9443 32.4014ZM21.2793 32.0994C21.8343 32.7288 22.3491 33.313 22.8259 33.8565C23.4367 33.27 24.0152 32.7145 24.4619 32.2857C23.9236 31.6894 23.3865 31.0952 22.9141 30.5728C22.3279 31.1195 21.7583 31.6519 21.2793 32.0994Z" fill="#DB3743"/>
<path d="M26.7533 47.2062C27.248 47.2073 27.7707 47.1092 28.2274 47.2393C28.5646 47.3352 29.0415 47.7243 29.0448 47.9888C29.0493 48.2765 28.6004 48.7957 28.3123 48.8233C27.2681 48.9225 26.2017 48.9181 25.1576 48.8145C24.8806 48.7869 24.4496 48.2545 24.4641 47.9723C24.4775 47.7045 24.9443 47.3297 25.2782 47.2371C25.7371 47.1103 26.2586 47.2051 26.7533 47.2062Z" fill="#DB3743"/>
</g>
<defs>
<clipPath id="clip0">
<rect width="34.2045" height="43" fill="white" transform="translate(13 9)"/>
</clipPath>
</defs>
</svg>
