<svg width="61" height="61" viewBox="0 0 61 61" fill="none" xmlns="http://www.w3.org/2000/svg">
<rect width="61" height="61" rx="7" fill="#ECE21B"/>
<g clip-path="url(#clip0)">
<path d="M43.1675 16.3922C42.8469 16.3922 42.6082 16.3922 42.3695 16.3922C37.1399 16.3922 31.9089 16.3909 26.6794 16.3909C26.4782 16.3909 26.218 16.462 26.0879 16.364C25.7968 16.1437 25.4494 15.8778 25.3461 15.5582C25.1959 15.0948 25.5151 14.7456 25.9859 14.6248C26.2193 14.5643 26.4728 14.5697 26.7169 14.5697C31.9022 14.567 37.0876 14.5684 42.2729 14.5684C42.5371 14.5684 42.8013 14.5684 43.0562 14.5684C43.1836 13.6538 42.6659 12.9782 41.7619 12.8359C41.4775 12.7915 41.1824 12.8009 40.8927 12.8009C35.5733 12.7996 30.2538 12.7996 24.9344 12.7996C24.8002 12.7996 24.6661 12.8036 24.532 12.7969C23.8962 12.7633 23.4858 12.4047 23.4898 11.893C23.4952 11.3813 23.911 11.0241 24.5467 11.0201C26.0892 11.012 27.6317 11.0174 29.1728 11.0174C33.1738 11.0174 37.1747 11.0147 41.1744 11.0187C43.3526 11.0201 44.942 12.6035 44.942 14.7779C44.946 26.6167 44.946 38.4556 44.946 50.2945C44.946 52.2983 43.2909 53.9905 41.2951 53.9932C35.3949 54.0039 29.4947 54.0026 23.5945 53.9945C21.6134 53.9919 19.9489 52.356 19.9462 50.3724C19.9328 41.8253 19.9382 33.2782 19.9409 24.7311C19.9409 23.9441 20.2386 23.5546 20.8073 23.5506C21.3908 23.5466 21.7046 23.9656 21.7046 24.7848C21.7073 31.2072 21.7073 37.631 21.7073 44.0534C21.7073 45.0271 21.7033 45.0271 22.6891 45.0271C29.2371 45.0271 35.7865 45.0163 42.3346 45.0432C43.028 45.0459 43.1849 44.8444 43.1823 44.1769C43.1608 35.1799 43.1675 26.1843 43.1675 17.1873C43.1675 16.9469 43.1675 16.7078 43.1675 16.3922ZM32.5018 46.8026C29.1513 46.8026 25.7995 46.816 22.449 46.7905C21.8522 46.7865 21.6684 46.9745 21.6952 47.5574C21.7381 48.5176 21.6872 49.4819 21.7207 50.4422C21.7609 51.5677 22.3337 52.1573 23.4335 52.16C29.4424 52.1734 35.4512 52.1747 41.4614 52.1626C42.5438 52.16 43.1393 51.5247 43.1608 50.4288C43.1796 49.4443 43.142 48.4599 43.1769 47.4768C43.1957 46.9449 43.0186 46.7905 42.4875 46.7932C39.1585 46.8147 35.8308 46.8039 32.5018 46.8026Z" fill="#BF2226"/>
<path d="M25.1289 29.0167C25.491 27.9665 25.7539 26.9968 26.1563 26.0902C26.7264 24.8076 27.3822 23.5613 28.0327 22.3163C28.4204 21.5736 29.3123 21.5159 29.6744 22.272C30.6241 24.2583 31.5817 26.2528 32.3355 28.317C32.8586 29.7527 31.7668 31.4839 30.1841 32.1957C28.7436 32.843 26.9852 32.3703 26.0504 30.9883C25.6507 30.4014 25.4361 29.6909 25.1289 29.0167ZM29.0494 24.6962C28.9247 24.7042 28.7999 24.7136 28.6765 24.7217C28.1602 26.0177 27.5928 27.2963 27.1475 28.6165C26.9222 29.2867 27.1448 29.973 27.7779 30.3853C28.4458 30.8204 29.1916 30.8191 29.8756 30.439C30.5033 30.0898 30.8199 29.421 30.616 28.7803C30.1761 27.393 29.5819 26.054 29.0494 24.6962Z" fill="#BF2226"/>
<path d="M23.5087 18.1477C23.404 19.6559 22.669 20.7035 21.3935 21.379C20.1233 22.0519 18.9068 21.837 17.8257 20.9842C16.7259 20.1166 16.0244 18.9602 16.4751 17.5339C16.9351 16.0754 17.5977 14.6786 18.2067 13.2711C18.4709 12.6587 18.8008 12.0691 19.1429 11.4956C19.5278 10.8496 20.3996 10.8201 20.7148 11.4902C21.6443 13.4618 22.5067 15.4656 23.3799 17.4627C23.4751 17.6816 23.4725 17.9422 23.5087 18.1477ZM20.0656 13.9413C19.9704 13.9426 19.8738 13.944 19.7786 13.944C19.2609 15.1702 18.7069 16.3843 18.2388 17.6293C17.9371 18.431 18.2268 19.2288 18.837 19.6559C19.3709 20.0306 20.4546 20.0319 20.9978 19.6599C21.5786 19.2624 21.8898 18.4713 21.6068 17.6897C21.1467 16.4219 20.5847 15.189 20.0656 13.9413Z" fill="#BF2226"/>
<path d="M18.1168 33.9752C18.1222 36.1147 16.4442 37.8351 14.6268 37.8768C12.8054 37.9184 10.9679 36.21 11.0001 34.3755C11.0121 33.6623 11.2401 32.9142 11.5285 32.2521C12.1884 30.7412 12.9207 29.2585 13.6879 27.7986C13.8435 27.5018 14.2835 27.1768 14.5839 27.1848C14.8843 27.1929 15.2921 27.5421 15.4477 27.847C16.2296 29.374 16.9687 30.9252 17.6702 32.4912C17.9223 33.0512 18.0296 33.6757 18.1168 33.9752ZM14.7006 30.0361C14.6094 30.0388 14.5182 30.0415 14.427 30.0428C13.9025 31.2838 13.3419 32.5113 12.8671 33.7711C12.5774 34.538 12.8577 35.3116 13.4398 35.7507C13.9495 36.1348 15.044 36.159 15.5992 35.8004C16.1746 35.4284 16.5247 34.6669 16.2618 33.9135C15.8045 32.5986 15.2277 31.3254 14.7006 30.0361Z" fill="#BF2226"/>
<path d="M30.675 49.5063C30.675 48.6306 31.5575 47.7308 32.4253 47.7214C33.2958 47.712 34.1931 48.5944 34.2092 49.4767C34.2267 50.3766 33.3052 51.318 32.42 51.3046C31.5602 51.2925 30.6763 50.3819 30.675 49.5063Z" fill="#BF2226"/>
</g>
<defs>
<clipPath id="clip0">
<rect width="33.9474" height="43" fill="white" transform="translate(11 11)"/>
</clipPath>
</defs>
</svg>
