<svg width="24" height="24" viewBox="0 0 24 24" fill="none" xmlns="http://www.w3.org/2000/svg">
<path d="M16.6667 2.66669H7.33333C6.97971 2.66669 6.64057 2.80716 6.39052 3.05721C6.14048 3.30726 6 3.6464 6 4.00002V20C6 20.3536 6.14048 20.6928 6.39052 20.9428C6.64057 21.1929 6.97971 21.3334 7.33333 21.3334H16.6667C17.0203 21.3334 17.3594 21.1929 17.6095 20.9428C17.8595 20.6928 18 20.3536 18 20V4.00002C18 3.6464 17.8595 3.30726 17.6095 3.05721C17.3594 2.80716 17.0203 2.66669 16.6667 2.66669ZM7.33333 4.00002H16.6667V16H7.33333V4.00002ZM7.33333 20V17.3334H16.6667V20H7.33333Z" fill="#BF2226"/>
<path d="M11.3333 18H12.6667V19.3333H11.3333V18Z" fill="#BF2226"/>
</svg>
