<svg width="42" height="44" viewBox="0 0 42 44" fill="none" xmlns="http://www.w3.org/2000/svg">
<path fill-rule="evenodd" clip-rule="evenodd" d="M19.4298 4.19375C20.4746 4.10292 21.5254 4.10292 22.5703 4.19375C22.6693 4.202 22.8673 4.29275 22.947 4.59525L23.7418 7.634C24.146 9.174 25.2543 10.2932 26.4835 10.9037C26.962 11.1402 27.4213 11.407 27.8613 11.7012C29.008 12.4657 30.5288 12.8645 32.0688 12.4437L35.0993 11.6105C35.4018 11.528 35.5805 11.6545 35.6355 11.737C36.2378 12.5895 36.763 13.4997 37.2113 14.4567C37.2498 14.542 37.2718 14.7592 37.049 14.9792L34.8078 17.1957C33.6775 18.3122 33.2623 19.8275 33.3503 21.1997C33.3842 21.7327 33.3842 22.2673 33.3503 22.8002C33.2623 24.1725 33.6775 25.6877 34.8078 26.8042L37.049 29.0207C37.269 29.2407 37.2498 29.458 37.2113 29.5432C36.7671 30.4953 36.2398 31.4064 35.6355 32.2657C35.5805 32.3455 35.399 32.4692 35.0993 32.3895L32.066 31.5562C30.5288 31.1355 29.008 31.5342 27.8613 32.2987C27.4213 32.593 26.962 32.8597 26.4863 33.0962C25.2515 33.7067 24.146 34.8232 23.7418 36.366L22.947 39.4047C22.8673 39.7072 22.6693 39.798 22.5703 39.8062C21.5254 39.8968 20.4747 39.8968 19.4298 39.8062C19.3308 39.798 19.1328 39.7045 19.053 39.4047L18.2583 36.366C17.854 34.826 16.7458 33.7067 15.5165 33.0962C15.0407 32.8602 14.5805 32.5939 14.1388 32.2987C12.992 31.5342 11.4713 31.1355 9.93128 31.5562L6.90078 32.3895C6.59828 32.472 6.41953 32.3455 6.36453 32.263C5.76034 31.4045 5.23305 30.4944 4.78878 29.5432C4.75028 29.458 4.72828 29.2407 4.95103 29.0207L7.19228 26.8042C8.32253 25.6877 8.73778 24.1725 8.64978 22.8002C8.6159 22.2673 8.6159 21.7327 8.64978 21.1997C8.73778 19.8275 8.32253 18.3122 7.19228 17.1957L4.95103 14.9792C4.73103 14.7592 4.75028 14.542 4.78878 14.4567C5.23224 13.5043 5.75957 12.5932 6.36453 11.7342C6.41953 11.6545 6.60103 11.528 6.90078 11.6105L9.93403 12.4437C11.4713 12.8645 12.992 12.4657 14.1388 11.7012C14.5788 11.407 15.038 11.1402 15.5138 10.9037C16.7485 10.2932 17.854 9.17675 18.2583 7.634L19.053 4.59525C19.1328 4.29275 19.3308 4.202 19.4298 4.19375ZM21 0C20.351 0 19.7075 0.0275 19.0723 0.0825C17.029 0.26125 15.5248 1.77375 15.0628 3.55025L14.2653 6.59175C14.2185 6.77325 14.0508 7.02625 13.685 7.20775C13.0505 7.52177 12.4369 7.87633 11.848 8.26925C11.5098 8.49475 11.2073 8.51675 11.023 8.4645L7.99253 7.634C6.22153 7.14725 4.16453 7.689 2.98753 9.3665C2.24496 10.4229 1.59711 11.5429 1.05153 12.7132C0.185284 14.5695 0.746284 16.6237 2.04978 17.9135L4.29103 20.13C4.42853 20.262 4.56053 20.5342 4.53303 20.9385C4.48809 21.6455 4.48809 22.3545 4.53303 23.0615C4.56053 23.4657 4.42853 23.738 4.29103 23.87L2.04978 26.0865C0.746284 27.3762 0.185284 29.4305 1.05153 31.2867C1.60153 32.4637 2.25053 33.583 2.98753 34.6362C4.16453 36.311 6.22153 36.8527 7.99253 36.3687L11.0258 35.5355C11.2073 35.4832 11.5098 35.5052 11.848 35.7307C12.4338 36.124 13.047 36.4787 13.685 36.7922C14.0508 36.9737 14.2185 37.2267 14.268 37.4082L15.0628 40.4497C15.5275 42.2262 17.029 43.7387 19.0723 43.9147C20.355 44.0263 21.645 44.0263 22.9278 43.9147C24.971 43.7387 26.4753 42.2262 26.9373 40.4497L27.7348 37.4082C27.7815 37.2267 27.9493 36.9737 28.315 36.7922C28.9496 36.4783 29.5632 36.1238 30.152 35.7307C30.4903 35.5052 30.7928 35.4832 30.977 35.5355L34.0075 36.366C35.7785 36.8527 37.8355 36.311 39.0125 34.6335C39.7495 33.583 40.4013 32.4637 40.9485 31.2867C41.8148 29.4305 41.2538 27.3762 39.9475 26.0865L37.709 23.87C37.5715 23.738 37.4395 23.4657 37.467 23.0615C37.5119 22.3545 37.5119 21.6455 37.467 20.9385C37.4395 20.5342 37.5743 20.262 37.709 20.13L39.9475 17.9135C41.2538 16.6237 41.8148 14.5695 40.9485 12.7132C40.4029 11.542 39.7551 10.4212 39.0125 9.36375C37.8355 7.689 35.7785 7.14725 34.0075 7.63125L30.9743 8.4645C30.7928 8.51675 30.4903 8.49475 30.152 8.26925C29.5631 7.87632 28.9495 7.52175 28.315 7.20775C27.9493 7.02625 27.7815 6.77325 27.732 6.59175L26.94 3.5475C26.4725 1.77375 24.971 0.26125 22.9278 0.08525C22.2867 0.0289802 21.6435 0.000536791 21 0V0ZM25.125 22C25.125 23.094 24.6904 24.1432 23.9168 24.9168C23.1433 25.6904 22.0941 26.125 21 26.125C19.906 26.125 18.8568 25.6904 18.0832 24.9168C17.3096 24.1432 16.875 23.094 16.875 22C16.875 20.906 17.3096 19.8568 18.0832 19.0832C18.8568 18.3096 19.906 17.875 21 17.875C22.0941 17.875 23.1433 18.3096 23.9168 19.0832C24.6904 19.8568 25.125 20.906 25.125 22ZM29.25 22C29.25 24.188 28.3808 26.2865 26.8337 27.8336C25.2865 29.3808 23.1881 30.25 21 30.25C18.812 30.25 16.7136 29.3808 15.1664 27.8336C13.6192 26.2865 12.75 24.188 12.75 22C12.75 19.812 13.6192 17.7135 15.1664 16.1664C16.7136 14.6192 18.812 13.75 21 13.75C23.1881 13.75 25.2865 14.6192 26.8337 16.1664C28.3808 17.7135 29.25 19.812 29.25 22Z" fill="#BF2226"/>
</svg>
