<svg width="40" height="38" viewBox="0 0 40 38" fill="none" xmlns="http://www.w3.org/2000/svg">
<path id="Vector" d="M37.7936 13.2067L26.3879 11.5131L21.2893 0.951866C21.15 0.662706 20.9209 0.428624 20.6379 0.286339C19.9281 -0.0716688 19.0656 0.226671 18.7108 0.951866L13.6121 11.5131L2.20645 13.2067C1.892 13.2526 1.6045 13.4041 1.38438 13.6336C1.11827 13.9131 0.971635 14.289 0.976689 14.6789C0.981743 15.0688 1.13808 15.4406 1.41134 15.7128L9.66349 23.9332L7.71388 35.5409C7.66816 35.811 7.6974 36.0887 7.79829 36.3426C7.89919 36.5965 8.06769 36.8164 8.28469 36.9774C8.5017 37.1385 8.75852 37.2342 9.02604 37.2537C9.29356 37.2731 9.56108 37.2157 9.79825 37.0877L20 31.6074L30.2018 37.0877C30.4803 37.2392 30.8037 37.2897 31.1137 37.2346C31.8953 37.0969 32.4209 36.3396 32.2861 35.5409L30.3365 23.9332L38.5887 15.7128C38.8133 15.4879 38.9615 15.1942 39.0065 14.8729C39.1277 14.0696 38.5797 13.3261 37.7936 13.2067ZM26.8641 22.7766L28.4858 32.429L20 27.8759L11.5143 32.4336L13.1359 22.7812L6.27188 15.9423L15.7594 14.5332L20 5.75284L24.2406 14.5332L33.7281 15.9423L26.8641 22.7766Z" fill="#BF2226"/>
</svg>
