<svg width="39" height="39" viewBox="0 0 39 39" fill="none" xmlns="http://www.w3.org/2000/svg">
<circle cx="19.5" cy="19.5" r="19.5" fill="#BF2226"/>
<path d="M24.6667 10.6667H15.3333C14.9797 10.6667 14.6406 10.8072 14.3905 11.0572C14.1405 11.3073 14 11.6464 14 12V28C14 28.3536 14.1405 28.6928 14.3905 28.9428C14.6406 29.1929 14.9797 29.3334 15.3333 29.3334H24.6667C25.0203 29.3334 25.3594 29.1929 25.6095 28.9428C25.8595 28.6928 26 28.3536 26 28V12C26 11.6464 25.8595 11.3073 25.6095 11.0572C25.3594 10.8072 25.0203 10.6667 24.6667 10.6667ZM15.3333 12H24.6667V24H15.3333V12ZM15.3333 28V25.3334H24.6667V28H15.3333Z" fill="white"/>
<path d="M19.3333 26H20.6667V27.3333H19.3333V26Z" fill="white"/>
</svg>
