<svg width="33" height="33" viewBox="0 0 33 33" fill="none" xmlns="http://www.w3.org/2000/svg">
<circle cx="16.5" cy="16.5" r="16.5" fill="#046CA6"/>
<path d="M12.5 14.75H9.5V23.75H12.5V14.75Z" stroke="white" stroke-linecap="round" stroke-linejoin="round"/>
<path d="M20 14C21.1935 14 22.3381 14.4741 23.182 15.318C24.0259 16.1619 24.5 17.3065 24.5 18.5V23.75H21.5V18.5C21.5 18.1022 21.342 17.7206 21.0607 17.4393C20.7794 17.158 20.3978 17 20 17C19.6022 17 19.2206 17.158 18.9393 17.4393C18.658 17.7206 18.5 18.1022 18.5 18.5V23.75H15.5V18.5C15.5 17.3065 15.9741 16.1619 16.818 15.318C17.6619 14.4741 18.8065 14 20 14V14Z" stroke="white" stroke-linecap="round" stroke-linejoin="round"/>
<path d="M11 12.5C11.8284 12.5 12.5 11.8284 12.5 11C12.5 10.1716 11.8284 9.5 11 9.5C10.1716 9.5 9.5 10.1716 9.5 11C9.5 11.8284 10.1716 12.5 11 12.5Z" stroke="white" stroke-linecap="round" stroke-linejoin="round"/>
</svg>
