<svg width="80" height="80" viewBox="0 0 80 80" fill="none" xmlns="http://www.w3.org/2000/svg">
<path d="M0 7C0 3.134 3.13401 0 7 0H73C76.866 0 80 3.13401 80 7V73C80 76.866 76.866 80 73 80H7C3.134 80 0 76.866 0 73V7Z" fill="#BF2226"/>
<g clip-path="url(#clip0)">
<path d="M40.072 18.0167C47.3405 18.0167 54.609 18.0142 61.8751 18.0192C63.5347 18.0192 63.8012 18.2728 64.3221 19.9325C65.0829 22.3532 65.9042 24.7516 66.6699 27.1698C67.4839 29.7431 66.7692 31.8781 64.6953 33.4935C63.9975 34.0377 63.777 34.6115 63.7794 35.4635C63.8061 42.2773 63.6801 49.091 63.8424 55.8998C63.9224 59.2808 61.0974 62.0388 57.8605 61.9994C46.071 61.8542 34.2791 61.8566 22.4896 61.9994C19.3956 62.0364 16.2993 59.3793 16.3986 55.8457C16.5852 49.1206 16.4374 42.3856 16.4713 35.6556C16.4761 34.7543 16.2532 34.1682 15.4973 33.6117C13.1108 31.856 12.4712 29.5732 13.4258 26.6625C14.1914 24.3305 15.0273 22.0207 15.7275 19.6666C16.0957 18.423 16.7984 17.9921 18.0267 17.997C25.3728 18.0315 32.7212 18.0167 40.072 18.0167ZM19.4683 35.6901C19.4514 36.025 19.415 36.4239 19.415 36.8228C19.4126 43.2647 19.4102 49.7042 19.415 56.1461C19.4174 58.2343 20.1055 58.9287 22.1916 58.9312C29.4165 58.9361 36.6437 58.9336 43.8686 58.9312C44.2563 58.9312 44.6415 58.8868 45.1236 58.8573C45.1236 58.2811 45.1236 57.8354 45.1236 57.3896C45.1236 53.329 45.1164 49.2658 45.1261 45.2052C45.1333 42.3979 47.1467 40.2999 49.8966 40.2235C50.7034 40.2014 51.5102 40.2162 52.3194 40.2186C55.7574 40.226 57.6376 42.1221 57.6424 45.6066C57.6472 49.6672 57.6691 53.7304 57.6279 57.791C57.6182 58.7366 57.9428 59.0223 58.832 58.9336C60.1621 58.8007 60.8333 58.0225 60.8357 56.3776C60.8478 49.7731 60.8405 43.1662 60.8357 36.5618C60.8357 36.2466 60.78 35.9289 60.7533 35.6507C60.6079 35.5842 60.5377 35.5275 60.465 35.5251C60.2251 35.5152 59.9829 35.5128 59.7406 35.53C57.434 35.7048 55.3238 35.072 53.4558 33.7447C52.6562 33.1759 52.1547 33.1931 51.3576 33.7644C47.8299 36.3008 44.4501 36.2392 40.9297 33.7028C40.6681 33.5132 40.3991 33.3359 40.2756 33.2522C38.7565 33.9983 37.4021 34.8577 35.929 35.3478C33.2082 36.2491 30.7514 35.3035 28.537 33.6954C27.815 33.1709 27.3619 33.2153 26.6375 33.6733C25.6562 34.2914 24.5781 34.8405 23.4684 35.1385C22.211 35.4783 20.8687 35.5103 19.4683 35.6901ZM40.0769 21.0209C33.2542 21.0209 26.4339 21.0357 19.6113 21.0037C18.7439 20.9988 18.3151 21.2524 18.0631 22.1315C17.5083 24.0572 16.8274 25.9459 16.2072 27.8519C15.6233 29.6496 16.1684 30.9768 17.8281 31.8387C20.4253 33.1857 24.125 32.5184 26.0899 30.3464C27.3352 28.9699 27.9749 29.0093 29.2105 30.3834C32.0161 33.5034 36.5323 33.3704 38.817 30.0017C39.5414 28.933 40.7044 29.0167 41.5088 30.0534C42.02 30.7134 42.6209 31.3758 43.3211 31.7969C45.8626 33.3236 48.6925 32.676 51.0378 30.147C52.0626 29.0413 52.913 29.0536 53.8628 30.1888C55.818 32.5282 59.5928 33.262 62.253 31.8215C63.8376 30.9645 64.3585 29.6643 63.7915 27.9012C63.1761 25.9927 62.4808 24.1089 61.9357 22.1832C61.6691 21.2475 61.2088 21.0012 60.3002 21.0037C53.5575 21.0357 46.8172 21.0209 40.0769 21.0209ZM54.454 58.8745C54.5266 58.7465 54.6018 58.6751 54.6018 58.6061C54.6114 53.9003 54.6284 49.192 54.609 44.4861C54.6042 43.5528 53.9234 43.2475 53.1214 43.2253C52.1159 43.1982 51.108 43.2032 50.1001 43.2179C48.5108 43.2401 48.128 43.6341 48.1255 45.2791C48.1158 49.4161 48.1207 53.5506 48.1255 57.6876C48.1255 58.0767 48.1885 58.4633 48.2224 58.877C50.4006 58.8745 52.443 58.8745 54.454 58.8745Z" fill="white"/>
<path d="M31.5129 55.7378C29.6182 55.7378 27.7236 55.7551 25.8289 55.7329C23.9125 55.7107 22.6332 54.4598 22.609 52.5046C22.5702 49.4732 22.5678 46.4394 22.609 43.4081C22.6356 41.5267 23.9052 40.2413 25.749 40.2265C29.6182 40.1945 33.4899 40.197 37.3616 40.2241C39.3386 40.2388 40.5597 41.5366 40.5718 43.5804C40.5888 46.5724 40.5864 49.5643 40.5718 52.5563C40.5621 54.381 39.2683 55.7058 37.4415 55.7329C35.4645 55.76 33.4899 55.7378 31.5129 55.7378ZM37.49 52.7262C37.49 49.4781 37.49 46.3976 37.49 43.2185C33.691 43.2185 29.9913 43.2012 26.2965 43.2579C26.0445 43.2628 25.589 43.807 25.5842 44.1099C25.5261 46.6857 25.5236 49.2664 25.5866 51.8421C25.5939 52.145 26.11 52.6843 26.3983 52.6892C30.0567 52.7483 33.7152 52.7262 37.49 52.7262Z" fill="white"/>
</g>
<defs>
<clipPath id="clip0">
<rect width="54" height="44" fill="white" transform="translate(13 18)"/>
</clipPath>
</defs>
</svg>
