<svg width="80" height="80" viewBox="0 0 80 80" fill="none" xmlns="http://www.w3.org/2000/svg">
<path d="M0 7C0 3.134 3.13401 0 7 0H73C76.866 0 80 3.13401 80 7V73C80 76.866 76.866 80 73 80H7C3.134 80 0 76.866 0 73V7Z" fill="#ECE21B"/>
<g clip-path="url(#clip0)">
<path d="M40.0722 18.0167C47.3407 18.0167 54.6091 18.0142 61.8752 18.0192C63.5348 18.0192 63.8014 18.2728 64.3223 19.9325C65.083 22.3532 65.9044 24.7516 66.67 27.1698C67.4841 29.7431 66.7693 31.8781 64.6954 33.4935C63.9976 34.0377 63.7771 34.6115 63.7795 35.4635C63.8062 42.2773 63.6802 49.091 63.8425 55.8998C63.9225 59.2808 61.0975 62.0388 57.8606 61.9994C46.0711 61.8542 34.2792 61.8566 22.4897 61.9994C19.3958 62.0364 16.2994 59.3793 16.3987 55.8457C16.5853 49.1206 16.4375 42.3856 16.4714 35.6556C16.4762 34.7543 16.2533 34.1682 15.4974 33.6117C13.1109 31.856 12.4713 29.5732 13.4259 26.6625C14.1915 24.3305 15.0274 22.0207 15.7276 19.6666C16.0959 18.423 16.7985 17.9921 18.0269 17.997C25.3729 18.0315 32.7213 18.0167 40.0722 18.0167ZM19.4684 35.6901C19.4515 36.025 19.4151 36.4239 19.4151 36.8228C19.4127 43.2647 19.4103 49.7042 19.4151 56.1461C19.4176 58.2343 20.1056 58.9287 22.1917 58.9312C29.4166 58.9361 36.6439 58.9336 43.8687 58.9312C44.2564 58.9312 44.6416 58.8868 45.1238 58.8573C45.1238 58.2811 45.1238 57.8354 45.1238 57.3896C45.1238 53.329 45.1165 49.2658 45.1262 45.2052C45.1335 42.3979 47.1468 40.2999 49.8967 40.2235C50.7035 40.2014 51.5103 40.2162 52.3196 40.2186C55.7576 40.226 57.6377 42.1221 57.6425 45.6066C57.6474 49.6672 57.6692 53.7304 57.628 57.791C57.6183 58.7366 57.943 59.0223 58.8321 58.9336C60.1623 58.8007 60.8334 58.0225 60.8358 56.3776C60.8479 49.7731 60.8407 43.1662 60.8358 36.5618C60.8358 36.2466 60.7801 35.9289 60.7534 35.6507C60.6081 35.5842 60.5378 35.5275 60.4651 35.5251C60.2253 35.5152 59.983 35.5128 59.7407 35.53C57.4342 35.7048 55.3239 35.072 53.4559 33.7447C52.6563 33.1759 52.1548 33.1931 51.3577 33.7644C47.8301 36.3008 44.4502 36.2392 40.9299 33.7028C40.6682 33.5132 40.3993 33.3359 40.2757 33.2522C38.7566 33.9983 37.4022 34.8577 35.9291 35.3478C33.2083 36.2491 30.7516 35.3035 28.5371 33.6954C27.8151 33.1709 27.362 33.2153 26.6376 33.6733C25.6563 34.2914 24.5782 34.8405 23.4685 35.1385C22.2111 35.4783 20.8688 35.5103 19.4684 35.6901ZM40.077 21.0209C33.2543 21.0209 26.4341 21.0357 19.6114 21.0037C18.744 20.9988 18.3152 21.2524 18.0632 22.1315C17.5084 24.0572 16.8276 25.9459 16.2073 27.8519C15.6234 29.6496 16.1685 30.9768 17.8282 31.8387C20.4255 33.1857 24.1251 32.5184 26.09 30.3464C27.3354 28.9699 27.975 29.0093 29.2106 30.3834C32.0163 33.5034 36.5324 33.3704 38.8171 30.0017C39.5416 28.933 40.7045 29.0167 41.5089 30.0534C42.0201 30.7134 42.621 31.3758 43.3212 31.7969C45.8627 33.3236 48.6926 32.676 51.0379 30.147C52.0628 29.0413 52.9132 29.0536 53.8629 30.1888C55.8181 32.5282 59.5929 33.262 62.2532 31.8215C63.8377 30.9645 64.3586 29.6643 63.7917 27.9012C63.1763 25.9927 62.4809 24.1089 61.9358 22.1832C61.6693 21.2475 61.2089 21.0012 60.3004 21.0037C53.5576 21.0357 46.8173 21.0209 40.077 21.0209ZM54.4541 58.8745C54.5268 58.7465 54.6019 58.6751 54.6019 58.6061C54.6116 53.9003 54.6285 49.192 54.6091 44.4861C54.6043 43.5528 53.9235 43.2475 53.1215 43.2253C52.1161 43.1982 51.1082 43.2032 50.1003 43.2179C48.5109 43.2401 48.1281 43.6341 48.1257 45.2791C48.116 49.4161 48.1208 53.5506 48.1257 57.6876C48.1257 58.0767 48.1886 58.4633 48.2226 58.877C50.4007 58.8745 52.4431 58.8745 54.4541 58.8745Z" fill="#BF2226"/>
<path d="M31.513 55.7378C29.6183 55.7378 27.7237 55.7551 25.829 55.7329C23.9126 55.7107 22.6333 54.4598 22.6091 52.5046C22.5703 49.4732 22.5679 46.4394 22.6091 43.4081C22.6357 41.5267 23.9053 40.2413 25.7491 40.2265C29.6183 40.1945 33.49 40.197 37.3617 40.2241C39.3387 40.2388 40.5598 41.5366 40.5719 43.5804C40.5889 46.5724 40.5865 49.5643 40.5719 52.5563C40.5623 54.381 39.2685 55.7058 37.4416 55.7329C35.4646 55.76 33.49 55.7378 31.513 55.7378ZM37.4901 52.7262C37.4901 49.4781 37.4901 46.3976 37.4901 43.2185C33.6911 43.2185 29.9914 43.2012 26.2966 43.2579C26.0447 43.2628 25.5892 43.807 25.5843 44.1099C25.5262 46.6857 25.5238 49.2664 25.5867 51.8421C25.594 52.145 26.1101 52.6843 26.3984 52.6892C30.0569 52.7483 33.7153 52.7262 37.4901 52.7262Z" fill="#BF2226"/>
</g>
<defs>
<clipPath id="clip0">
<rect width="54" height="44" fill="white" transform="translate(13 18)"/>
</clipPath>
</defs>
</svg>
