<svg width="61" height="61" viewBox="0 0 61 61" fill="none" xmlns="http://www.w3.org/2000/svg">
<rect width="61" height="61" rx="7" fill="white" fill-opacity="0.1"/>
<g clip-path="url(#clip0)">
<path d="M15.0226 30.5229C15.0237 24.6092 15.0695 18.6943 14.9991 12.7817C14.9734 10.5628 16.1918 8.96227 18.8562 9.00195C25.543 9.10006 32.232 9.03282 38.9211 9.03502C41.2337 9.03612 42.4163 10.1968 42.423 12.4763C42.4309 15.2034 42.4174 17.9304 42.4297 20.6564C42.4454 24.2575 44.4789 26.5194 48.0881 26.9438C48.6632 27.011 49.1902 27.1202 49.2048 27.8036C49.2204 28.5652 48.6218 28.6468 48.0311 28.7107C44.5883 29.0822 42.4409 31.4224 42.4309 34.8494C42.4174 39.4161 42.432 43.9829 42.4242 48.5496C42.4208 50.8346 41.2416 51.9964 38.9311 51.9975C32.1427 52.002 25.3543 52.002 18.567 51.9975C16.2241 51.9964 15.0281 50.8082 15.0248 48.4603C15.0159 42.4815 15.0214 36.5017 15.0226 30.5229ZM16.7724 29.6146C16.7724 33.8496 16.7669 38.0856 16.7758 42.3206C16.7791 43.5706 17.2794 44.0754 18.5123 44.0765C25.3286 44.0832 32.146 44.0832 38.9624 44.0754C40.1762 44.0743 40.6732 43.607 40.6832 42.4154C40.7055 39.7567 40.7156 37.0969 40.681 34.4382C40.6564 32.5974 39.9719 30.9605 38.3973 29.9618C37.4068 29.3324 36.1662 29.0635 35.0104 28.724C34.4621 28.563 33.8524 28.4495 33.9864 27.8036C34.0556 27.4685 34.6028 27.1808 34.9903 26.9769C35.2661 26.8325 35.6413 26.8843 35.9663 26.8181C38.5928 26.2802 40.4543 24.273 40.6408 21.6341C40.7491 20.0975 40.6989 18.5499 40.691 17.0078C40.6843 15.6906 40.2343 15.2662 38.8641 15.2651C32.1472 15.2607 25.4302 15.2596 18.7133 15.2651C17.1789 15.2662 16.778 15.6686 16.7758 17.2062C16.7691 21.342 16.7736 25.4789 16.7724 29.6146ZM40.6162 45.687C32.6486 45.687 24.7624 45.687 16.7691 45.687C16.7691 46.6228 16.7613 47.5355 16.7713 48.4471C16.7847 49.869 17.1733 50.2526 18.6139 50.2548C22.2711 50.2603 25.9294 50.257 29.5866 50.2581C32.7457 50.2581 35.9037 50.2504 39.0629 50.2626C39.7943 50.2659 40.5124 50.1115 40.5872 49.3278C40.7011 48.1076 40.6162 46.8708 40.6162 45.687ZM40.6117 13.626C40.6341 13.4618 40.681 13.2424 40.6888 13.0231C40.7569 11.1007 40.4409 10.7788 38.5057 10.7788C35.6782 10.7788 32.8496 10.7777 30.0221 10.7777C26.1628 10.7777 22.3035 10.7876 18.4441 10.7722C17.6591 10.7689 17.0058 10.9706 16.8573 11.7863C16.7445 12.4036 16.835 13.0561 16.835 13.626C24.8194 13.626 32.6865 13.626 40.6117 13.626ZM44.5593 27.8466C44.3985 27.9733 44.2388 28.1001 44.078 28.2268C43.1199 27.2183 42.1617 26.2108 41.5777 25.5968C40.9077 26.2361 39.9205 27.1786 39.3007 27.7705C39.9574 28.4704 40.9054 29.4812 41.8435 30.481C42.0891 30.1878 42.4945 29.6245 42.9825 29.1428C43.4649 28.6667 44.03 28.2753 44.5593 27.8466Z" fill="white"/>
<path d="M30.9442 32.4014C30.6193 32.613 30.3211 32.9437 29.9671 33.0176C27.0257 33.6327 26.3323 34.3238 25.7192 37.1732C25.6444 37.5182 25.1631 37.7783 24.8705 38.0782C24.5846 37.7673 24.119 37.4939 24.043 37.139C23.4411 34.3392 22.6717 33.5797 19.8677 33.0143C19.5148 32.9437 19.2446 32.4786 18.9352 32.1964C19.2714 31.901 19.5718 31.4072 19.9481 31.3443C22.4729 30.921 23.564 29.8607 24.0341 27.3585C24.1044 26.9826 24.5254 26.4667 24.8716 26.3863C25.5696 26.2253 25.6879 26.8437 25.7706 27.3949C26.1279 29.7747 27.4121 30.996 29.7695 31.3322C30.1949 31.3928 30.5768 31.7555 30.9789 31.9781C30.9666 32.1192 30.9554 32.2603 30.9442 32.4014ZM23.2792 32.0994C23.8342 32.7288 24.349 33.313 24.8258 33.8564C25.4367 33.27 26.0151 32.7145 26.4618 32.2857C25.9236 31.6893 25.3864 31.0952 24.9141 30.5727C24.3278 31.1195 23.7583 31.6519 23.2792 32.0994Z" fill="white"/>
<path d="M28.7532 47.2062C29.2479 47.2073 29.7705 47.1092 30.2273 47.2393C30.5645 47.3352 31.0413 47.7243 31.0447 47.9888C31.0492 48.2765 30.6002 48.7957 30.3121 48.8233C29.268 48.9225 28.2016 48.918 27.1575 48.8144C26.8805 48.7869 26.4495 48.2545 26.464 47.9723C26.4774 47.7044 26.9442 47.3297 27.2781 47.2371C27.737 47.1103 28.2585 47.2051 28.7532 47.2062Z" fill="white"/>
</g>
<defs>
<clipPath id="clip0">
<rect width="34.2045" height="43" fill="white" transform="translate(15 9)"/>
</clipPath>
</defs>
</svg>
