<svg width="39" height="39" viewBox="0 0 39 39" fill="none" xmlns="http://www.w3.org/2000/svg">
<circle cx="19.5" cy="19.5" r="19.5" fill="#BF2226"/>
<path d="M19.0834 12.5834H14.5C14.0138 12.5834 13.5475 12.7766 13.2037 13.1204C12.8598 13.4642 12.6667 13.9305 12.6667 14.4167V24.5001C12.6667 24.9863 12.8598 25.4526 13.2037 25.7964C13.5475 26.1402 14.0138 26.3334 14.5 26.3334H24.5834C25.0696 26.3334 25.5359 26.1402 25.8797 25.7964C26.2235 25.4526 26.4167 24.9863 26.4167 24.5001V19.9167L19.0834 12.5834ZM25.1205 11.2872C25.2896 11.1121 25.4919 10.9725 25.7156 10.8764C25.9393 10.7803 26.1799 10.7297 26.4233 10.7276C26.6667 10.7255 26.9081 10.7719 27.1334 10.8641C27.3587 10.9562 27.5634 11.0924 27.7356 11.2645C27.9077 11.4366 28.0438 11.6413 28.136 11.8667C28.2282 12.092 28.2746 12.3334 28.2725 12.5768C28.2704 12.8202 28.2198 13.0608 28.1237 13.2845C28.0276 13.5082 27.888 13.7104 27.7129 13.8796L19.8424 21.7501H17.25V19.1577L25.1205 11.2872Z" stroke="white" stroke-width="2" stroke-linecap="round" stroke-linejoin="round"/>
</svg>
