<svg width="49" height="49" viewBox="0 0 49 49" fill="none" xmlns="http://www.w3.org/2000/svg">
<path d="M34.544 15.96H32.0249C31.4771 15.96 30.9561 16.2231 30.6338 16.6743L22.1904 28.3833L18.3662 23.0767C18.044 22.6309 17.5283 22.3623 16.9751 22.3623H14.4561C14.1069 22.3623 13.9028 22.7598 14.1069 23.0444L20.7993 32.3257C20.9574 32.5463 21.1658 32.7261 21.4073 32.8502C21.6488 32.9742 21.9163 33.0389 22.1878 33.0389C22.4592 33.0389 22.7268 32.9742 22.9682 32.8502C23.2097 32.7261 23.4181 32.5463 23.5762 32.3257L34.8877 16.6421C35.0972 16.3574 34.8931 15.96 34.544 15.96Z" fill="#BF2226"/>
<path d="M24.5 0.4375C11.2119 0.4375 0.4375 11.2119 0.4375 24.5C0.4375 37.7881 11.2119 48.5625 24.5 48.5625C37.7881 48.5625 48.5625 37.7881 48.5625 24.5C48.5625 11.2119 37.7881 0.4375 24.5 0.4375ZM24.5 44.4805C13.4678 44.4805 4.51953 35.5322 4.51953 24.5C4.51953 13.4678 13.4678 4.51953 24.5 4.51953C35.5322 4.51953 44.4805 13.4678 44.4805 24.5C44.4805 35.5322 35.5322 44.4805 24.5 44.4805Z" fill="#BF2226"/>
</svg>
