<svg width="39" height="39" viewBox="0 0 39 39" fill="none" xmlns="http://www.w3.org/2000/svg">
<circle cx="19.5" cy="19.5" r="19.5" fill="#BF2226"/>
<path d="M26.606 24.6598C26.2192 23.7434 25.6578 22.9111 24.9531 22.2091C24.2506 21.5051 23.4183 20.9438 22.5024 20.5562C22.4942 20.5521 22.486 20.55 22.4778 20.5459C23.7554 19.623 24.586 18.1198 24.586 16.4238C24.586 13.6143 22.3096 11.3379 19.5001 11.3379C16.6905 11.3379 14.4141 13.6143 14.4141 16.4238C14.4141 18.1198 15.2447 19.623 16.5223 20.5479C16.5141 20.5521 16.5059 20.5541 16.4977 20.5582C15.579 20.9458 14.7545 21.5016 14.047 22.2111C13.343 22.9137 12.7817 23.7459 12.3941 24.6618C12.0133 25.5585 11.8079 26.5199 11.7891 27.4939C11.7886 27.5158 11.7924 27.5376 11.8004 27.558C11.8084 27.5784 11.8204 27.5969 11.8357 27.6126C11.851 27.6283 11.8693 27.6407 11.8894 27.6492C11.9096 27.6577 11.9313 27.6621 11.9532 27.6621H13.1836C13.2739 27.6621 13.3457 27.5903 13.3477 27.5021C13.3887 25.9189 14.0245 24.4362 15.1483 23.3124C16.3111 22.1496 17.8553 21.5098 19.5001 21.5098C21.1448 21.5098 22.689 22.1496 23.8518 23.3124C24.9756 24.4362 25.6114 25.9189 25.6524 27.5021C25.6545 27.5924 25.7262 27.6621 25.8165 27.6621H27.0469C27.0688 27.6621 27.0905 27.6577 27.1107 27.6492C27.1309 27.6407 27.1491 27.6283 27.1644 27.6126C27.1797 27.5969 27.1917 27.5784 27.1997 27.558C27.2077 27.5376 27.2115 27.5158 27.211 27.4939C27.1905 26.5137 26.9875 25.5601 26.606 24.6598ZM19.5001 19.9512C18.5587 19.9512 17.6728 19.5841 17.0063 18.9176C16.3398 18.2511 15.9727 17.3651 15.9727 16.4238C15.9727 15.4825 16.3398 14.5966 17.0063 13.9301C17.6728 13.2636 18.5587 12.8965 19.5001 12.8965C20.4414 12.8965 21.3273 13.2636 21.9938 13.9301C22.6603 14.5966 23.0274 15.4825 23.0274 16.4238C23.0274 17.3651 22.6603 18.2511 21.9938 18.9176C21.3273 19.5841 20.4414 19.9512 19.5001 19.9512Z" fill="white"/>
</svg>
