<svg width="33" height="33" viewBox="0 0 33 33" fill="none" xmlns="http://www.w3.org/2000/svg">
<circle cx="16.5" cy="16.5" r="16.5" fill="#05B2F2"/>
<path d="M24.25 10.25C23.5318 10.7566 22.7366 11.1441 21.895 11.3975C21.4433 10.8781 20.843 10.51 20.1753 10.3429C19.5076 10.1758 18.8046 10.2179 18.1616 10.4633C17.5185 10.7088 16.9663 11.1458 16.5797 11.7153C16.1931 12.2847 15.9908 12.9592 16 13.6475V14.3975C14.682 14.4316 13.376 14.1393 12.1983 13.5466C11.0206 12.9538 10.0077 12.079 9.25 11C9.25 11 6.25 17.75 13 20.75C11.4554 21.7984 9.61537 22.3242 7.75 22.25C14.5 26 22.75 22.25 22.75 13.625C22.7493 13.4161 22.7292 13.2077 22.69 13.0025C23.4555 12.2476 23.9956 11.2945 24.25 10.25Z" fill="white"/>
</svg>
