<svg width="61" height="61" viewBox="0 0 61 61" fill="none" xmlns="http://www.w3.org/2000/svg">
<rect width="61" height="61" rx="7" fill="#BF2226" fill-opacity="0.1"/>
<g clip-path="url(#clip0)">
<path d="M26.9987 11.7658C28.0973 10.951 29.0923 10.1749 30.1342 9.46482C30.4853 9.2249 30.9545 9.0349 31.3719 9.03007C34.0399 8.99142 36.7095 9.00108 39.3774 9.01397C41.5503 9.02363 42.9126 10.3907 42.9174 12.5354C42.9174 12.8849 42.8883 13.2359 42.919 13.5821C43.2734 17.5077 42.4337 21.2498 41.1507 24.9178C40.8902 25.6617 40.8546 26.2816 41.4257 26.8999C42.7217 28.304 42.9902 29.9673 42.9546 31.8528C42.8495 37.35 42.919 42.8504 42.9158 48.3508C42.9142 50.6823 41.6134 51.9737 39.2528 51.9753C33.1064 51.9802 26.9615 51.9335 20.8166 52.0011C18.5143 52.0252 16.987 50.6018 16.9999 48.1753C17.0663 36.3195 17.0307 24.4621 17.0307 12.6047C17.0307 10.3198 18.3315 9.02041 20.6354 9.01075C21.8747 9.00431 23.1157 9.02685 24.355 8.99947C24.8873 8.9882 25.2562 9.11058 25.5442 9.61296C25.9535 10.3295 26.4664 10.9897 26.9987 11.7658ZM30.398 16.8813C28.8172 17.8362 27.3627 18.7153 25.7756 19.6734C26.3192 19.9568 26.6929 20.1597 27.0731 20.3465C29.0098 21.2949 29.0098 21.2932 28.5503 23.3527C28.539 23.4042 28.539 23.4606 28.5244 23.5121C28.2688 24.4862 28.0131 25.4588 27.7478 26.4668C27.01 26.2752 26.3936 26.1157 25.7044 25.937C25.9406 24.9403 26.1315 24.0016 26.3952 23.0805C26.5279 22.6168 26.3887 22.3898 25.9843 22.1998C25.0604 21.7634 24.1447 21.3061 23.2306 20.8488C22.6222 20.5445 22.0204 20.2241 21.2793 19.8392C23.3762 18.5801 25.3242 17.4095 27.3336 16.2018C26.6201 15.1246 25.8467 14.1762 25.3209 13.1087C24.5427 11.5307 23.4118 10.8608 21.6741 11.1861C21.3619 11.2441 21.0286 11.1925 20.705 11.1942C19.4818 11.1974 19.1777 11.4953 19.1777 12.7126C19.176 21.9148 19.1841 31.117 19.1615 40.3192C19.1599 41.0196 19.3362 41.2289 20.0594 41.2257C26.6363 41.1984 33.2148 41.2112 39.7916 41.208C40.078 41.208 40.3627 41.1823 40.6329 41.1678C40.6718 41.01 40.7073 40.9343 40.7073 40.8586C40.7122 37.2631 40.7365 33.6691 40.6928 30.0736C40.6879 29.6421 40.3207 29.2137 40.0391 28.6083C39.7059 29.5116 39.4696 30.1509 39.2221 30.8239C37.5233 30.1605 35.941 29.5406 34.2535 28.882C34.2535 29.8659 34.268 30.6694 34.2454 31.4712C34.2373 31.724 34.2049 32.0412 34.0512 32.2151C33.3668 32.9961 32.6355 33.7368 31.8654 34.5515C31.2781 33.9219 30.8283 33.4421 30.4109 32.9945C30.9836 32.2522 31.7797 31.6 32.0466 30.7772C32.3298 29.9013 32.1129 28.8659 32.1146 27.8998C32.1146 27.6309 32.1146 27.3636 32.1146 27.0947C32.1146 26.6825 32.1146 26.2719 32.1146 25.7325C32.6728 25.9354 33.0481 26.061 33.4154 26.2059C34.6418 26.6874 35.8827 27.1398 37.0832 27.6776C37.7433 27.9739 38.0135 27.8612 38.2044 27.1575C38.6445 25.528 39.1752 23.9243 39.6363 22.2996C40.023 20.9374 40.5456 19.5784 40.6766 18.1872C40.8562 16.3001 40.7284 14.3823 40.7154 12.4775C40.709 11.5178 40.3676 11.199 39.3807 11.1942C37.7902 11.1877 36.1853 11.3246 34.6126 11.1603C32.3152 10.9204 30.4093 11.5242 28.7574 13.1167C28.3739 13.4871 28.2364 13.6996 28.5681 14.1601C29.191 15.0312 29.7653 15.9345 30.398 16.8813ZM19.1777 43.4478C19.1777 45.0692 19.176 46.6424 19.1777 48.2172C19.1793 49.5198 19.4964 49.8386 20.7875 49.8386C25.7173 49.8402 30.6471 49.8386 35.5753 49.8386C36.868 49.8386 38.1607 49.837 39.4535 49.8386C40.0877 49.8386 40.654 49.6116 40.675 48.9385C40.7332 47.1254 40.6944 45.3092 40.6944 43.4478C33.5157 43.4478 26.3952 43.4478 19.1777 43.4478Z" fill="#BF2226"/>
<path d="M29.9466 47.6477C29.3399 47.6429 28.8497 47.1662 28.895 46.5753C28.9419 45.9554 29.3059 45.5915 29.9304 45.5464C30.5242 45.5029 31.0031 45.9892 31.008 46.5946C31.0112 47.229 30.5857 47.6525 29.9466 47.6477Z" fill="#BF2226"/>
</g>
<defs>
<clipPath id="clip0">
<rect width="26" height="43" fill="white" transform="translate(17 9)"/>
</clipPath>
</defs>
</svg>
