<svg width="22" height="22" viewBox="0 0 22 22" fill="none" xmlns="http://www.w3.org/2000/svg">
<path d="M10.0834 4.5834H5.50002C5.01379 4.5834 4.54747 4.77656 4.20366 5.12037C3.85984 5.46419 3.66669 5.9305 3.66669 6.41673V16.5001C3.66669 16.9863 3.85984 17.4526 4.20366 17.7964C4.54747 18.1402 5.01379 18.3334 5.50002 18.3334H15.5834C16.0696 18.3334 16.5359 18.1402 16.8797 17.7964C17.2235 17.4526 17.4167 16.9863 17.4167 16.5001V11.9167L10.0834 4.5834ZM16.1205 3.28723C16.2896 3.11213 16.4919 2.97246 16.7156 2.87638C16.9393 2.7803 17.1799 2.72972 17.4233 2.72761C17.6667 2.72549 17.9081 2.77188 18.1334 2.86406C18.3587 2.95624 18.5634 3.09237 18.7356 3.26451C18.9077 3.43665 19.0438 3.64134 19.136 3.86665C19.2282 4.09196 19.2746 4.33337 19.2725 4.5768C19.2704 4.82023 19.2198 5.0608 19.1237 5.28448C19.0276 5.50815 18.888 5.71045 18.7129 5.87957L10.8424 13.7501H8.25002V11.1577L16.1205 3.28723Z" stroke="#BF2226" stroke-width="2" stroke-linecap="round" stroke-linejoin="round"/>
</svg>
