<svg width="33" height="33" viewBox="0 0 33 33" fill="none" xmlns="http://www.w3.org/2000/svg">
<circle cx="16.5" cy="16.5" r="16.5" fill="#D51337"/>
<path d="M19.75 9.5H12.25C10.1789 9.5 8.5 11.1789 8.5 13.25V20.75C8.5 22.8211 10.1789 24.5 12.25 24.5H19.75C21.8211 24.5 23.5 22.8211 23.5 20.75V13.25C23.5 11.1789 21.8211 9.5 19.75 9.5Z" stroke="#F5FCFF" stroke-linecap="round" stroke-linejoin="round"/>
<path d="M19 16.5275C19.0926 17.1517 18.986 17.7891 18.6953 18.3492C18.4047 18.9093 17.9449 19.3635 17.3812 19.6472C16.8176 19.9309 16.1789 20.0297 15.5559 19.9294C14.9329 19.8292 14.3573 19.535 13.9112 19.0889C13.465 18.6427 13.1708 18.0671 13.0706 17.4441C12.9703 16.8211 13.0691 16.1824 13.3528 15.6188C13.6365 15.0551 14.0907 14.5953 14.6508 14.3047C15.2109 14.014 15.8483 13.9074 16.4725 14C17.1092 14.0944 17.6987 14.3911 18.1538 14.8462C18.6089 15.3013 18.9056 15.8908 19 16.5275Z" stroke="white" stroke-linecap="round" stroke-linejoin="round"/>
<path d="M20.125 12.875H20.1325" stroke="#313131" stroke-linecap="round" stroke-linejoin="round"/>
</svg>
