<svg width="181" height="92" viewBox="0 0 181 92" fill="none" xmlns="http://www.w3.org/2000/svg">
<path d="M82.847 92H9.12715C4.08483 92 0 87.9071 0 82.8703V9.12972C0 4.08598 4.08483 0 9.12715 0H82.847C87.8893 0 91.9741 4.08598 91.9741 9.12972V82.8703C91.9741 87.9071 87.8824 92 82.847 92Z" fill="#BF2226"/>
<path d="M22.8558 50.1755H16.422V61.7651H10.4153V30.2349H23.6273C30.2746 30.2349 34.6625 34.2382 34.6625 40.2052C34.6625 44.2981 32.4927 47.447 28.828 49.0249L37.1286 61.7651H30.0542L22.8558 50.1755ZM16.422 45.1869H22.5113C26.0864 45.1869 28.4767 43.1818 28.4767 40.1983C28.4767 37.2148 26.2586 35.2097 22.9384 35.2097H16.422V45.1869Z" fill="white"/>
<path d="M85.3061 30.2349L74.4431 61.7651H68.8635L61.1967 38.71L53.5712 61.7651H47.9916L37.0803 30.2349H43.5141L51.0983 53.7172L58.3862 30.2349H64.0071L71.3778 53.7172L78.9206 30.2349H85.3061Z" fill="white"/>
<path d="M100.888 46.5719C100.888 36.5533 107.811 29.8904 118.178 29.8904C123.516 29.8904 127.842 31.6543 131.059 35.1408L127.133 39.1097C125.28 36.7256 122.145 35.0512 118.267 35.0512C111.696 35.0512 107.328 39.6816 107.328 46.6133C107.328 53.6276 111.785 58.2648 118.357 58.2648C122.765 58.2648 125.81 56.2804 127.883 53.104L132.072 56.8523C128.937 61.1312 124.177 63.4257 118.219 63.4257C107.859 63.4257 100.888 56.6801 100.888 46.5719Z" fill="#171717"/>
<path d="M158.02 53.2349H140.813C141.254 56.5905 143.017 58.7058 146.503 58.7058C148.928 58.7058 150.911 57.6034 152.324 55.8808L156.953 58.2166C154.838 61.3931 151.084 63.4257 146.585 63.4257C139.304 63.4257 134.455 58.5749 134.455 51.2436C134.455 43.74 139.174 38.7582 146.324 38.7582C153.426 38.7582 158.192 43.5264 158.192 50.713C158.192 51.5605 158.103 52.5321 158.02 53.2349ZM140.813 49.1765H151.883C151.442 45.559 149.548 43.485 146.324 43.485C143.148 43.485 141.295 45.559 140.813 49.1765Z" fill="#171717"/>
<path d="M162.821 28.5674H168.821V62.9847H162.821V28.5674Z" fill="#171717"/>
<path d="M175 28.5674H181V62.9847H175V28.5674Z" fill="#171717"/>
</svg>
