<svg width="182" height="93" viewBox="0 0 182 93" fill="none" xmlns="http://www.w3.org/2000/svg">
<path d="M23.0721 35.5994H16.5196V45.6781H22.6426C26.2375 45.6781 28.641 43.6512 28.641 40.6352C28.641 37.6193 26.4106 35.5994 23.0721 35.5994Z" fill="white"/>
<path d="M83.3047 0H9.17758C4.1074 0 0 4.13039 0 9.22895V83.771C0 88.8696 4.1074 93 9.17758 93H83.3047C88.3749 93 92.4823 88.8696 92.4823 83.771V9.22895C92.4823 4.13039 88.3679 0 83.3047 0ZM30.2202 62.4365L22.982 50.7209H16.5127V62.4365H10.4728V30.5635H23.7578C30.4418 30.5635 34.854 34.6103 34.854 40.6422C34.854 44.7796 32.6722 47.9627 28.9873 49.5577L37.3337 62.4365H30.2202ZM74.8544 62.4365H69.2439L61.5348 39.1308L53.8672 62.4365H48.2567L37.2852 30.5635H43.7545L51.3806 54.3011L58.7088 30.5635H64.3608L71.7721 54.3011L79.3566 30.5635H85.7844L74.8544 62.4365Z" fill="white"/>
<path d="M101.445 47.0782C101.445 36.9507 108.406 30.2153 118.831 30.2153C124.199 30.2153 128.548 31.9984 131.783 35.5229L127.835 39.5348C125.972 37.1249 122.82 35.4323 118.921 35.4323C112.313 35.4323 107.921 40.1129 107.921 47.12C107.921 54.2106 112.403 58.8982 119.011 58.8982C123.444 58.8982 126.505 56.8922 128.59 53.6813L132.801 57.4703C129.65 61.7958 124.864 64.1152 118.872 64.1152C108.455 64.1152 101.445 57.2962 101.445 47.0782Z" fill="white"/>
<path d="M158.893 53.8134H141.591C142.034 57.2055 143.807 59.3438 147.312 59.3438C149.75 59.3438 151.745 58.2294 153.165 56.4881L157.82 58.8493C155.693 62.0603 151.918 64.115 147.395 64.115C140.074 64.115 135.198 59.2115 135.198 51.8005C135.198 44.2153 139.942 39.1794 147.132 39.1794C154.273 39.1794 159.066 43.9994 159.066 51.2642C159.066 52.1209 158.976 53.103 158.893 53.8134ZM141.591 49.7109H152.722C152.278 46.0541 150.374 43.9576 147.132 43.9576C143.939 43.9576 142.076 46.0541 141.591 49.7109Z" fill="white"/>
<path d="M163.721 28.8779H169.754V63.6693H163.721V28.8779Z" fill="white"/>
<path d="M175.967 28.8779H182V63.6693H175.967V28.8779Z" fill="white"/>
</svg>
